<svg width="621" height="329" viewBox="0 0 621 329" fill="none" xmlns="http://www.w3.org/2000/svg">
<path d="M617.115 68.4945C613.903 64.3201 608.918 61.0926 602.971 59.3388C597.025 57.5849 590.469 57.4081 584.372 58.8373L376.399 107.294L376.399 22.2598C376.401 18.0869 374.789 14.0048 371.762 10.5175C368.734 7.03026 364.423 4.29046 359.362 2.63625C354.301 0.982044 348.71 0.48595 343.281 1.20912C337.851 1.9323 332.821 3.84313 328.809 6.70574L8.88984 234.632C4.24298 237.939 1.21332 242.341 0.294559 247.119C-0.624142 251.897 0.622257 256.769 3.83063 260.942C7.039 265.115 12.0201 268.343 17.9622 270.099C23.9042 271.855 30.4568 272.035 36.5518 270.611L244.581 222.112L244.581 307.146C244.579 311.319 246.191 315.401 249.219 318.888C252.247 322.375 256.557 325.115 261.618 326.769C266.68 328.424 272.27 328.92 277.7 328.197C283.129 327.473 288.16 325.563 292.171 322.7L612.091 94.8166C616.745 91.5103 619.781 87.1076 620.703 82.3271C621.626 77.5465 620.381 72.6705 617.172 68.4945L617.115 68.4945Z" fill="#F4DE49"/>
</svg>
