<svg width="68" height="71" viewBox="0 0 68 71" fill="none" xmlns="http://www.w3.org/2000/svg">
<g filter="url(#filter0_bd_801_347)">
<path d="M29.6196 13.4229L15.2175 24.2245C14.0173 25.1366 13.2972 26.5528 13.2972 28.065V49.6681C13.2972 52.3084 15.4575 54.4688 18.0979 54.4688H46.902C49.5424 54.4688 51.7027 52.3084 51.7027 49.6681V28.065C51.7027 26.5528 50.9826 25.1366 49.7824 24.2245L35.3804 13.4229C34.5478 12.8034 33.5377 12.4688 32.5 12.4688C31.4622 12.4687 30.4521 12.8034 29.6196 13.4229ZM33.7001 34.0659C33.7001 36.0581 32.0919 37.6664 30.0996 37.6664V46.0676C30.0996 46.7397 29.5716 47.2677 28.8995 47.2677C28.2274 47.2677 27.6993 46.7397 27.6993 46.0676V37.6664C25.707 37.6664 24.0988 36.0581 24.0988 34.0659V28.065C24.0988 27.3929 24.6269 26.8648 25.2989 26.8648C25.971 26.8648 26.4991 27.3929 26.4991 28.065V34.0659H27.6993V28.065C27.6993 27.3929 28.2274 26.8648 28.8995 26.8648C29.5716 26.8648 30.0996 27.3929 30.0996 28.065V34.0659H31.2998V28.065C31.2998 27.3929 31.8279 26.8648 32.5 26.8648C33.1721 26.8648 33.7001 27.3929 33.7001 28.065V34.0659ZM38.5008 47.2677C37.8287 47.2677 37.3006 46.7397 37.3006 46.0676V38.8665H36.1005C35.4284 38.8665 34.9003 38.3385 34.9003 37.6664V31.6655C34.9003 29.5532 36.2685 27.753 38.1648 27.1289C38.9089 26.8648 39.701 27.4649 39.701 28.281V46.0676C39.701 46.7397 39.1729 47.2677 38.5008 47.2677Z" fill="url(#paint0_linear_801_347)" fill-opacity="0.5" shape-rendering="crispEdges"/>
<path d="M15.3913 24.4546C15.3915 24.4544 15.3918 24.4542 15.392 24.454L29.7917 13.6543C29.7919 13.6541 29.7921 13.654 29.7923 13.6538C30.575 13.0716 31.5245 12.7571 32.5 12.7571C33.4755 12.7571 34.425 13.0716 35.2076 13.6538C35.2078 13.654 35.208 13.6541 35.2082 13.6543L49.6079 24.454C49.6081 24.4542 49.6083 24.4543 49.6084 24.4544C50.7383 25.3133 51.4143 26.6452 51.4143 28.065V49.6681C51.4143 52.1492 49.3831 54.1804 46.902 54.1804H18.0979C15.6168 54.1804 13.5856 52.1492 13.5856 49.6681V28.065C13.5856 26.6453 14.2616 25.3135 15.3913 24.4546ZM30.388 33.7775V28.065C30.388 27.2337 29.7308 26.5765 28.8995 26.5765C28.0681 26.5765 27.4109 27.2337 27.4109 28.065V33.7775H26.7875V28.065C26.7875 27.2337 26.1303 26.5765 25.2989 26.5765C24.4676 26.5765 23.8104 27.2337 23.8104 28.065V34.0659C23.8104 36.1204 25.3946 37.7972 27.4109 37.9443V46.0676C27.4109 46.8989 28.0681 47.5561 28.8995 47.5561C29.7308 47.5561 30.388 46.8989 30.388 46.0676V37.9443C32.4043 37.7972 33.9885 36.1204 33.9885 34.0659V28.065C33.9885 27.2337 33.3313 26.5765 32.5 26.5765C31.6686 26.5765 31.0114 27.2337 31.0114 28.065V33.7775H30.388ZM37.0123 46.0676C37.0123 46.8989 37.6695 47.5561 38.5008 47.5561C39.3322 47.5561 39.9893 46.8989 39.9893 46.0676V28.281C39.9893 27.2873 39.0212 26.5216 38.0716 26.856C36.0608 27.5192 34.612 29.4275 34.612 31.6655V37.6664C34.612 38.4977 35.2691 39.1549 36.1005 39.1549H37.0123V46.0676Z" stroke="url(#paint1_linear_801_347)" stroke-width="0.576709" shape-rendering="crispEdges"/>
</g>
<g filter="url(#filter1_bd_801_347)">
<path d="M32.3624 14.8638C32.2486 14.7159 32.072 14.6015 31.8613 14.5394C31.6506 14.4773 31.4184 14.471 31.2024 14.5216L23.8346 16.2383L23.8346 13.2258C23.8347 13.078 23.7776 12.9334 23.6703 12.8098C23.563 12.6863 23.4103 12.5892 23.231 12.5306C23.0517 12.472 22.8537 12.4544 22.6613 12.4801C22.469 12.5057 22.2907 12.5734 22.1486 12.6748L10.8149 20.7495C10.6503 20.8667 10.543 21.0226 10.5104 21.1918C10.4779 21.3611 10.522 21.5337 10.6357 21.6816C10.7494 21.8294 10.9258 21.9437 11.1363 22.006C11.3468 22.0682 11.579 22.0746 11.7949 22.0241L19.1647 20.3059L19.1647 23.3184C19.1646 23.4662 19.2218 23.6109 19.329 23.7344C19.4363 23.8579 19.589 23.955 19.7683 24.0136C19.9476 24.0722 20.1456 24.0898 20.338 24.0642C20.5303 24.0385 20.7086 23.9709 20.8507 23.8694L32.1844 15.7963C32.3492 15.6791 32.4568 15.5232 32.4895 15.3538C32.5222 15.1845 32.4781 15.0117 32.3644 14.8638L32.3624 14.8638Z" fill="#F4DE49"/>
</g>
<defs>
<filter id="filter0_bd_801_347" x="1.76306" y="0.934565" width="66.0874" height="69.682" filterUnits="userSpaceOnUse" color-interpolation-filters="sRGB">
<feFlood flood-opacity="0" result="BackgroundImageFix"/>
<feGaussianBlur in="BackgroundImageFix" stdDeviation="0.687586"/>
<feComposite in2="SourceAlpha" operator="in" result="effect1_backgroundBlur_801_347"/>
<feColorMatrix in="SourceAlpha" type="matrix" values="0 0 0 0 0 0 0 0 0 0 0 0 0 0 0 0 0 0 127 0" result="hardAlpha"/>
<feOffset dx="2.30684" dy="2.30684"/>
<feGaussianBlur stdDeviation="6.92051"/>
<feComposite in2="hardAlpha" operator="out"/>
<feColorMatrix type="matrix" values="0 0 0 0 0.469583 0 0 0 0 0.569926 0 0 0 0 0.7 0 0 0 0.8 0"/>
<feBlend mode="normal" in2="effect1_backgroundBlur_801_347" result="effect2_dropShadow_801_347"/>
<feBlend mode="normal" in="SourceGraphic" in2="effect2_dropShadow_801_347" result="shape"/>
</filter>
<filter id="filter1_bd_801_347" x="0.5" y="2.46863" width="46" height="35.607" filterUnits="userSpaceOnUse" color-interpolation-filters="sRGB">
<feFlood flood-opacity="0" result="BackgroundImageFix"/>
<feGaussianBlur in="BackgroundImageFix" stdDeviation="0.596129"/>
<feComposite in2="SourceAlpha" operator="in" result="effect1_backgroundBlur_801_347"/>
<feColorMatrix in="SourceAlpha" type="matrix" values="0 0 0 0 0 0 0 0 0 0 0 0 0 0 0 0 0 0 127 0" result="hardAlpha"/>
<feOffset dx="2" dy="2"/>
<feGaussianBlur stdDeviation="6"/>
<feComposite in2="hardAlpha" operator="out"/>
<feColorMatrix type="matrix" values="0 0 0 0 0.469583 0 0 0 0 0.569926 0 0 0 0 0.7 0 0 0 0.8 0"/>
<feBlend mode="normal" in2="effect1_backgroundBlur_801_347" result="effect2_dropShadow_801_347"/>
<feBlend mode="normal" in="SourceGraphic" in2="effect2_dropShadow_801_347" result="shape"/>
</filter>
<linearGradient id="paint0_linear_801_347" x1="-22.5765" y1="59.6208" x2="45.7096" y2="82.9702" gradientUnits="userSpaceOnUse">
<stop stop-color="white"/>
<stop offset="1" stop-color="#A7C2E5"/>
</linearGradient>
<linearGradient id="paint1_linear_801_347" x1="-2.53338" y1="-10.406" x2="83.5909" y2="54.1845" gradientUnits="userSpaceOnUse">
<stop stop-color="white"/>
<stop offset="1" stop-color="white" stop-opacity="0"/>
</linearGradient>
</defs>
</svg>
