<svg width="74" height="69" viewBox="0 0 74 69" fill="none" xmlns="http://www.w3.org/2000/svg">
<g filter="url(#filter0_bd_801_1892)">
<path d="M54.7501 20.8437H41.2501C40.6534 20.8437 40.0811 21.0807 39.6591 21.5027C39.2372 21.9247 39.0001 22.497 39.0001 23.0937V29.8437H34.5001V14.0937C34.5001 13.497 34.2631 12.9247 33.8411 12.5027C33.4192 12.0807 32.8469 11.8437 32.2501 11.8437H14.2501C13.6534 11.8437 13.0811 12.0807 12.6591 12.5027C12.2372 12.9247 12.0001 13.497 12.0001 14.0937V50.0937C12.0001 50.6904 12.2372 51.2627 12.6591 51.6847C13.0811 52.1066 13.6534 52.3437 14.2501 52.3437H54.7501C55.3469 52.3437 55.9192 52.1066 56.3411 51.6847C56.7631 51.2627 57.0001 50.6904 57.0001 50.0937V23.0937C57.0001 22.497 56.7631 21.9247 56.3411 21.5027C55.9192 21.0807 55.3469 20.8437 54.7501 20.8437ZM25.5001 18.5937H30.0001V23.0937H25.5001V18.5937ZM21.0001 41.0937H16.5001V36.5937H21.0001V41.0937ZM21.0001 32.0937H16.5001V27.5937H21.0001V32.0937ZM21.0001 23.0937H16.5001V18.5937H21.0001V23.0937ZM30.0001 41.0937H25.5001V36.5937H30.0001V41.0937ZM30.0001 32.0937H25.5001V27.5937H30.0001V32.0937ZM50.2501 41.0937H45.7501V36.5937H50.2501V41.0937ZM50.2501 32.0937H45.7501V27.5937H50.2501V32.0937Z" fill="url(#paint0_linear_801_1892)" fill-opacity="0.5" shape-rendering="crispEdges"/>
<path d="M39.0001 30.132H39.2885V29.8437V23.0937C39.2885 22.5734 39.4951 22.0745 39.863 21.7066C40.2309 21.3387 40.7299 21.132 41.2501 21.132H54.7501C55.2704 21.132 55.7693 21.3387 56.1372 21.7066C56.5051 22.0745 56.7118 22.5734 56.7118 23.0937V50.0937C56.7118 50.6139 56.5051 51.1129 56.1372 51.4808C55.7693 51.8487 55.2704 52.0553 54.7501 52.0553H14.2501C13.7299 52.0553 13.2309 51.8487 12.863 51.4808C12.4951 51.1129 12.2885 50.6139 12.2885 50.0937V14.0937C12.2885 13.5734 12.4951 13.0745 12.863 12.7066C13.2309 12.3387 13.7299 12.132 14.2501 12.132H32.2501C32.7704 12.132 33.2693 12.3387 33.6372 12.7066C34.0051 13.0745 34.2118 13.5734 34.2118 14.0937V29.8437V30.132H34.5001H39.0001ZM25.5001 18.3053H25.2118V18.5937V23.0937V23.382H25.5001H30.0001H30.2885V23.0937V18.5937V18.3053H30.0001H25.5001ZM21.0001 41.382H21.2885V41.0937V36.5937V36.3053H21.0001H16.5001H16.2118V36.5937V41.0937V41.382H16.5001H21.0001ZM21.0001 32.382H21.2885V32.0937V27.5937V27.3053H21.0001H16.5001H16.2118V27.5937V32.0937V32.382H16.5001H21.0001ZM21.0001 23.382H21.2885V23.0937V18.5937V18.3053H21.0001H16.5001H16.2118V18.5937V23.0937V23.382H16.5001H21.0001ZM30.0001 41.382H30.2885V41.0937V36.5937V36.3053H30.0001H25.5001H25.2118V36.5937V41.0937V41.382H25.5001H30.0001ZM30.0001 32.382H30.2885V32.0937V27.5937V27.3053H30.0001H25.5001H25.2118V27.5937V32.0937V32.382H25.5001H30.0001ZM50.2501 41.382H50.5385V41.0937V36.5937V36.3053H50.2501H45.7501H45.4618V36.5937V41.0937V41.382H45.7501H50.2501ZM50.2501 32.382H50.5385V32.0937V27.5937V27.3053H50.2501H45.7501H45.4618V27.5937V32.0937V32.382H45.7501H50.2501Z" stroke="url(#paint1_linear_801_1892)" stroke-width="0.576709" shape-rendering="crispEdges"/>
</g>
<rect x="34.5001" y="29.6562" width="4.6875" height="22.5" fill="#F4DE49"/>
<defs>
<filter id="filter0_bd_801_1892" x="0.465937" y="0.309504" width="72.682" height="68.182" filterUnits="userSpaceOnUse" color-interpolation-filters="sRGB">
<feFlood flood-opacity="0" result="BackgroundImageFix"/>
<feGaussianBlur in="BackgroundImageFix" stdDeviation="0.687586"/>
<feComposite in2="SourceAlpha" operator="in" result="effect1_backgroundBlur_801_1892"/>
<feColorMatrix in="SourceAlpha" type="matrix" values="0 0 0 0 0 0 0 0 0 0 0 0 0 0 0 0 0 0 127 0" result="hardAlpha"/>
<feOffset dx="2.30684" dy="2.30684"/>
<feGaussianBlur stdDeviation="6.92051"/>
<feComposite in2="hardAlpha" operator="out"/>
<feColorMatrix type="matrix" values="0 0 0 0 0.469583 0 0 0 0 0.569926 0 0 0 0 0.7 0 0 0 0.8 0"/>
<feBlend mode="normal" in2="effect1_backgroundBlur_801_1892" result="effect2_dropShadow_801_1892"/>
<feBlend mode="normal" in="SourceGraphic" in2="effect2_dropShadow_801_1892" result="shape"/>
</filter>
<linearGradient id="paint0_linear_801_1892" x1="-30.0334" y1="57.3118" x2="46.1767" y2="88.9761" gradientUnits="userSpaceOnUse">
<stop stop-color="white"/>
<stop offset="1" stop-color="#A7C2E5"/>
</linearGradient>
<linearGradient id="paint1_linear_801_1892" x1="-6.54875" y1="-10.2141" x2="79.5891" y2="68.2825" gradientUnits="userSpaceOnUse">
<stop stop-color="white"/>
<stop offset="1" stop-color="white" stop-opacity="0"/>
</linearGradient>
</defs>
</svg>
