<svg width="75" height="72" viewBox="0 0 75 72" fill="none" xmlns="http://www.w3.org/2000/svg">
<g filter="url(#filter0_bd_801_1658)">
<path d="M52.6336 52.6021V24.529C52.6336 22.618 51.0844 21.0687 49.1733 21.0687H44.0336V15.929C44.0336 14.018 42.4844 12.4688 40.5733 12.4688H21.6938C19.7828 12.4688 18.2336 14.018 18.2336 15.929V52.6021H12.5002V55.4688H32.5669V46.8687H38.3002V55.4688H58.3669V52.6021H52.6336ZM29.7002 41.1354H23.9669V35.4021H29.7002V41.1354ZM29.7002 32.5354H23.9669V26.8021H29.7002V32.5354ZM29.7002 23.9354H23.9669V18.2021H29.7002V23.9354ZM38.3002 41.1354H32.5669V35.4021H38.3002V41.1354ZM38.3002 32.5354H32.5669V26.8021H38.3002V32.5354ZM38.3002 23.9354H32.5669V18.2021H38.3002V23.9354ZM49.7669 41.1354H44.0336V35.4021H49.7669V41.1354ZM49.7669 32.5354H44.0336V26.8021H49.7669V32.5354Z" fill="url(#paint0_linear_801_1658)" fill-opacity="0.5" shape-rendering="crispEdges"/>
<path d="M52.3452 52.6021V52.8904H52.6336H58.0786V55.1804H38.5886V46.8687V46.5804H38.3002H32.5669H32.2786V46.8687V55.1804H12.7886V52.8904H18.2336H18.5219V52.6021V15.929C18.5219 14.1772 19.942 12.7571 21.6938 12.7571H40.5733C42.3251 12.7571 43.7452 14.1772 43.7452 15.929V21.0687V21.3571H44.0336H49.1733C50.9251 21.3571 52.3452 22.7772 52.3452 24.529V52.6021ZM29.7002 41.4238H29.9886V41.1354V35.4021V35.1137H29.7002H23.9669H23.6786V35.4021V41.1354V41.4238H23.9669H29.7002ZM29.7002 32.8238H29.9886V32.5354V26.8021V26.5137H29.7002H23.9669H23.6786V26.8021V32.5354V32.8238H23.9669H29.7002ZM29.7002 24.2238H29.9886V23.9354V18.2021V17.9137H29.7002H23.9669H23.6786V18.2021V23.9354V24.2238H23.9669H29.7002ZM38.3002 41.4238H38.5886V41.1354V35.4021V35.1137H38.3002H32.5669H32.2786V35.4021V41.1354V41.4238H32.5669H38.3002ZM38.3002 32.8238H38.5886V32.5354V26.8021V26.5137H38.3002H32.5669H32.2786V26.8021V32.5354V32.8238H32.5669H38.3002ZM38.3002 24.2238H38.5886V23.9354V18.2021V17.9137H38.3002H32.5669H32.2786V18.2021V23.9354V24.2238H32.5669H38.3002ZM49.7669 41.4238H50.0553V41.1354V35.4021V35.1137H49.7669H44.0336H43.7452V35.4021V41.1354V41.4238H44.0336H49.7669ZM49.7669 32.8238H50.0553V32.5354V26.8021V26.5137H49.7669H44.0336H43.7452V26.8021V32.5354V32.8238H44.0336H49.7669Z" stroke="url(#paint1_linear_801_1658)" stroke-width="0.576709" shape-rendering="crispEdges"/>
</g>
<path d="M51.237 48.1529C51.044 47.9599 50.9475 47.7143 50.9475 47.4161C50.9475 47.1178 51.044 46.8722 51.237 46.6792L53.5001 44.4687L44.5001 35.4687L42.2896 37.7318C42.0791 37.9424 41.8335 38.0434 41.5528 38.035C41.2721 38.0266 41.0264 37.9168 40.8159 37.7055C40.6054 37.495 40.5001 37.2448 40.5001 36.955C40.5001 36.6652 40.6054 36.4154 40.8159 36.2055L41.5528 35.4687L40.8159 34.7318C40.6054 34.5213 40.5001 34.2757 40.5001 33.995C40.5001 33.7143 40.6054 33.4687 40.8159 33.2582L42.3159 31.7582L41.5528 30.995C41.3422 30.7845 41.2412 30.5343 41.2496 30.2445C41.258 29.9547 41.3678 29.7048 41.5791 29.495C41.7896 29.2845 42.0398 29.1792 42.3296 29.1792C42.6194 29.1792 42.8692 29.2845 43.0791 29.495L43.8159 30.2582L45.2896 28.7845C45.5001 28.574 45.7457 28.4687 46.0264 28.4687C46.3071 28.4687 46.5528 28.574 46.7633 28.7845L47.5264 29.5476L48.2896 28.7845C48.4826 28.5915 48.7282 28.495 49.0264 28.495C49.3247 28.495 49.5703 28.5915 49.7633 28.7845C49.9563 28.9775 50.0528 29.2231 50.0528 29.5213C50.0528 29.8196 49.9563 30.0652 49.7633 30.2582L47.5264 32.4687L56.5001 41.4687L58.7106 39.2055C58.9212 38.995 59.1713 38.8897 59.4612 38.8897C59.751 38.8897 60.0008 38.995 60.2106 39.2055C60.4212 39.4161 60.5264 39.6662 60.5264 39.9561C60.5264 40.2459 60.4212 40.4957 60.2106 40.7055L59.4475 41.4687L60.1843 42.2055C60.3949 42.4161 60.5001 42.6617 60.5001 42.9424C60.5001 43.2231 60.3949 43.4687 60.1843 43.6792L58.6843 45.1792L59.4475 45.9424C59.658 46.1529 59.7633 46.3985 59.7633 46.6792C59.7633 46.9599 59.658 47.2055 59.4475 47.4161C59.237 47.6266 58.9868 47.7318 58.697 47.7318C58.4071 47.7318 58.1573 47.6266 57.9475 47.4161L57.1843 46.6792L55.7106 48.1529C55.5001 48.3634 55.2545 48.4687 54.9738 48.4687C54.6931 48.4687 54.4475 48.3634 54.237 48.1529L53.4738 47.3897L52.7106 48.1529C52.5177 48.3459 52.2721 48.4424 51.9738 48.4424C51.6756 48.4424 51.4299 48.3459 51.237 48.1529Z" fill="#F4DE49"/>
<defs>
<filter id="filter0_bd_801_1658" x="0.966059" y="0.934565" width="73.5487" height="70.682" filterUnits="userSpaceOnUse" color-interpolation-filters="sRGB">
<feFlood flood-opacity="0" result="BackgroundImageFix"/>
<feGaussianBlur in="BackgroundImageFix" stdDeviation="0.687586"/>
<feComposite in2="SourceAlpha" operator="in" result="effect1_backgroundBlur_801_1658"/>
<feColorMatrix in="SourceAlpha" type="matrix" values="0 0 0 0 0 0 0 0 0 0 0 0 0 0 0 0 0 0 127 0" result="hardAlpha"/>
<feOffset dx="2.30684" dy="2.30684"/>
<feGaussianBlur stdDeviation="6.92051"/>
<feComposite in2="hardAlpha" operator="out"/>
<feColorMatrix type="matrix" values="0 0 0 0 0.469583 0 0 0 0 0.569926 0 0 0 0 0.7 0 0 0 0.8 0"/>
<feBlend mode="normal" in2="effect1_backgroundBlur_801_1658" result="effect2_dropShadow_801_1658"/>
<feBlend mode="normal" in="SourceGraphic" in2="effect2_dropShadow_801_1658" result="shape"/>
</filter>
<linearGradient id="paint0_linear_801_1658" x1="-30.3428" y1="60.7435" x2="48.2421" y2="92.0885" gradientUnits="userSpaceOnUse">
<stop stop-color="white"/>
<stop offset="1" stop-color="#A7C2E5"/>
</linearGradient>
<linearGradient id="paint1_linear_801_1658" x1="-6.40587" y1="-10.9507" x2="84.6289" y2="68.6902" gradientUnits="userSpaceOnUse">
<stop stop-color="white"/>
<stop offset="1" stop-color="white" stop-opacity="0"/>
</linearGradient>
</defs>
</svg>
