<svg width="77" height="77" viewBox="0 0 77 77" fill="none" xmlns="http://www.w3.org/2000/svg">
<g filter="url(#filter0_bd_801_460)">
<path d="M36.5 12.4687C23.2456 12.4687 12.5 23.2143 12.5 36.4687C12.5 49.7231 23.2456 60.4687 36.5 60.4687C49.7544 60.4687 60.5 49.7231 60.5 36.4687C60.5 23.2143 49.7544 12.4687 36.5 12.4687ZM24.7208 55.5103C23.3408 54.6524 22.0574 53.6482 20.8928 52.5151L23.0136 49.7375C23.68 50.1681 24.4562 50.3978 25.2496 50.3991H28.0712L24.7208 55.5103ZM25.2504 48.7991C24.5737 48.8006 23.9241 48.5332 23.4445 48.0559C22.9649 47.5785 22.6945 46.9302 22.6928 46.2535V27.4151C22.6928 22.3847 29.5968 19.8695 36.5008 19.8695C43.404 19.8695 50.3072 22.3847 50.3072 27.4151V46.2543C50.3055 46.9307 50.0353 47.5788 49.5561 48.0561C49.0768 48.5334 48.4276 48.801 47.7512 48.7999H25.2504V48.7991ZM48.28 55.5103L44.9296 50.3991H47.7504C48.5744 50.3991 49.3384 50.1519 49.9848 49.7383L52.1072 52.5159C50.9431 53.649 49.6599 54.653 48.28 55.5103Z" fill="url(#paint0_linear_801_460)" fill-opacity="0.5" shape-rendering="crispEdges"/>
<path d="M22.4044 46.2542L22.4044 46.2535L22.4044 27.4151C22.4044 24.7419 24.245 22.7773 26.8818 21.4965C29.5213 20.2144 33.0196 19.5811 36.5008 19.5811C39.9816 19.5811 43.4795 20.2144 46.1187 21.4965C48.7552 22.7774 50.5956 24.7419 50.5956 27.4151V46.2543V46.255C50.5937 47.0079 50.293 47.7292 49.7595 48.2604C49.2261 48.7917 48.5036 49.0894 47.7508 49.0882M22.4044 46.2542L25.2392 48.7991C24.5665 48.7976 23.9215 48.5306 23.4445 48.0559C22.9649 47.5785 22.6945 46.9302 22.6928 46.2535V27.4151C22.6928 22.3847 29.5968 19.8695 36.5008 19.8695C43.404 19.8695 50.3072 22.3847 50.3072 27.4151V46.2543C50.3055 46.9307 50.0353 47.5788 49.5561 48.0561C49.0768 48.5334 48.4276 48.801 47.7512 48.7999H25.5388H25.2504L25.251 49.0874C25.2508 49.0874 25.2506 49.0874 25.2504 49.0874C25.1537 49.0876 25.0574 49.0829 24.962 49.0734M22.4044 46.2542C22.4063 47.0074 22.7073 47.7289 23.2411 48.2602C23.7062 48.7232 24.3149 49.0086 24.962 49.0734M22.4044 46.2542L24.962 49.0734M47.7508 49.0882L47.7512 48.8011V49.0882H47.7508ZM47.7508 49.0882H25.2504H24.962V49.0734M24.5686 55.7552L24.8076 55.9038L24.962 55.6684L28.3124 50.5572L28.605 50.1107H28.0712H25.2501C24.5121 50.1095 23.79 49.8958 23.1701 49.4953L22.9462 49.3506L22.7844 49.5625L20.6636 52.3401L20.5084 52.5434L20.6917 52.7218C21.8712 53.8694 23.171 54.8864 24.5686 55.7552ZM48.0388 55.6684L48.1931 55.9037L48.4322 55.7552C49.8297 54.8869 51.1293 53.8701 52.3083 52.7225L52.4916 52.5441L52.3363 52.3408L50.2139 49.5632L50.0529 49.3524L49.8294 49.4954C49.2262 49.8814 48.5156 50.1107 47.7504 50.1107H44.9296H44.3958L44.6884 50.5572L48.0388 55.6684ZM12.7884 36.4687C12.7884 23.3735 23.4049 12.757 36.5 12.757C49.5951 12.757 60.2117 23.3735 60.2117 36.4687C60.2117 49.5638 49.5951 60.1803 36.5 60.1803C23.4049 60.1803 12.7884 49.5638 12.7884 36.4687Z" stroke="url(#paint1_linear_801_460)" stroke-width="0.576709" shape-rendering="crispEdges"/>
</g>
<path d="M26.4723 36.54H46.5283C46.8821 36.5395 47.2213 36.3988 47.4714 36.1487C47.7216 35.8985 47.8623 35.5593 47.8627 35.2056V28.3168C47.8623 27.963 47.7216 27.6238 47.4714 27.3737C47.2213 27.1235 46.8821 26.9828 46.5283 26.9824H26.4723C26.1186 26.9828 25.7794 27.1235 25.5292 27.3737C25.2791 27.6238 25.1384 27.963 25.1379 28.3168V35.2056C25.1379 35.9416 25.7363 36.54 26.4723 36.54Z" fill="#F4DE49"/>
<path d="M29.6489 41.7344H25.8785C25.0145 41.7344 24.3113 42.4328 24.3113 43.2936C24.3113 44.1544 25.0145 44.8528 25.8785 44.8528H29.6489C30.5145 44.8528 31.2161 44.1544 31.2161 43.2936C31.2161 42.4328 30.5145 41.7344 29.6489 41.7344ZM27.7641 44.6304C27.5885 44.6305 27.4147 44.596 27.2524 44.5289C27.0902 44.4618 26.9428 44.3635 26.8186 44.2394C26.6944 44.1153 26.5958 43.968 26.5285 43.8059C26.4613 43.6437 26.4266 43.4699 26.4265 43.2944C26.4264 43.1188 26.4608 42.945 26.5279 42.7827C26.595 42.6205 26.6934 42.4731 26.8175 42.3489C26.9415 42.2247 27.0888 42.1261 27.251 42.0588C27.4131 41.9916 27.5869 41.9569 27.7625 41.9568C28.117 41.9566 28.4571 42.0972 28.708 42.3477C28.9588 42.5983 29.0999 42.9382 29.1001 43.2928C29.1003 43.6473 28.9597 43.9874 28.7091 44.2383C28.4586 44.4891 28.1186 44.6302 27.7641 44.6304ZM48.6873 43.2936C48.6862 42.8793 48.5207 42.4823 48.2272 42.19C47.9336 41.8976 47.536 41.7337 47.1217 41.7344H43.3497C42.4841 41.7344 41.7841 42.4328 41.7841 43.2936C41.7841 44.1544 42.4841 44.8528 43.3497 44.8528H47.1217C47.9857 44.8528 48.6873 44.1544 48.6873 43.2936ZM45.2361 44.6304C45.0605 44.6305 44.8867 44.596 44.7244 44.5289C44.5622 44.4618 44.4148 44.3635 44.2906 44.2394C44.1664 44.1153 44.0678 43.968 44.0005 43.8059C43.9333 43.6437 43.8986 43.4699 43.8985 43.2944C43.8984 43.1188 43.9328 42.945 43.9999 42.7827C44.067 42.6205 44.1654 42.4731 44.2895 42.3489C44.4135 42.2247 44.5608 42.1261 44.723 42.0588C44.8851 41.9916 45.0589 41.9569 45.2345 41.9568C45.589 41.9566 45.9291 42.0972 46.18 42.3477C46.4308 42.5983 46.5719 42.9382 46.5721 43.2928C46.5723 43.6473 46.4317 43.9874 46.1811 44.2383C45.9306 44.4891 45.5906 44.6302 45.2361 44.6304Z" fill="#F4DE49"/>
<defs>
<filter id="filter0_bd_801_460" x="0.965815" y="0.934504" width="75.682" height="75.682" filterUnits="userSpaceOnUse" color-interpolation-filters="sRGB">
<feFlood flood-opacity="0" result="BackgroundImageFix"/>
<feGaussianBlur in="BackgroundImageFix" stdDeviation="0.687586"/>
<feComposite in2="SourceAlpha" operator="in" result="effect1_backgroundBlur_801_460"/>
<feColorMatrix in="SourceAlpha" type="matrix" values="0 0 0 0 0 0 0 0 0 0 0 0 0 0 0 0 0 0 127 0" result="hardAlpha"/>
<feOffset dx="2.30684" dy="2.30684"/>
<feGaussianBlur stdDeviation="6.92051"/>
<feComposite in2="hardAlpha" operator="out"/>
<feColorMatrix type="matrix" values="0 0 0 0 0.469583 0 0 0 0 0.569926 0 0 0 0 0.7 0 0 0 0.8 0"/>
<feBlend mode="normal" in2="effect1_backgroundBlur_801_460" result="effect2_dropShadow_801_460"/>
<feBlend mode="normal" in="SourceGraphic" in2="effect2_dropShadow_801_460" result="shape"/>
</filter>
<linearGradient id="paint0_linear_801_460" x1="-32.3358" y1="66.3568" x2="51.2943" y2="97.6293" gradientUnits="userSpaceOnUse">
<stop stop-color="white"/>
<stop offset="1" stop-color="#A7C2E5"/>
</linearGradient>
<linearGradient id="paint1_linear_801_460" x1="-7.28547" y1="-13.6739" x2="93.2621" y2="68.7914" gradientUnits="userSpaceOnUse">
<stop stop-color="white"/>
<stop offset="1" stop-color="white" stop-opacity="0"/>
</linearGradient>
</defs>
</svg>
