<svg width="228" height="121" viewBox="0 0 228 121" fill="none" xmlns="http://www.w3.org/2000/svg">
<g clip-path="url(#clip0_2_2495)">
<path d="M226.574 25.5044C225.394 23.9717 223.564 22.7868 221.381 22.1429C219.197 21.4989 216.79 21.434 214.552 21.9587L138.195 39.7496L138.195 8.5293C138.196 6.99723 137.604 5.4985 136.492 4.21815C135.38 2.9378 133.798 1.93187 131.94 1.32453C130.081 0.717197 128.029 0.535053 126.035 0.800563C124.042 1.06608 122.195 1.76763 120.722 2.81864L3.26369 86.5017C1.5576 87.7161 0.445253 89.3321 0.107927 91.0863C-0.229384 92.8405 0.228257 94.6295 1.40621 96.1616C2.58417 97.6937 4.41298 98.8787 6.59461 99.5233C8.77622 100.168 11.182 100.234 13.4198 99.7115L89.7978 81.9049L89.7978 113.125C89.797 114.657 90.3889 116.156 91.5005 117.436C92.6121 118.717 94.1947 119.723 96.0529 120.33C97.9112 120.937 99.9637 121.119 101.957 120.854C103.951 120.588 105.798 119.887 107.27 118.836L224.729 35.1685C226.438 33.9546 227.552 32.3382 227.891 30.583C228.23 28.8278 227.773 27.0376 226.594 25.5044L226.574 25.5044Z" fill="#00B6AB"/>
</g>
<defs>
<clipPath id="clip0_2_2495">
<rect width="228" height="120.291" fill="white" transform="translate(0 0.682129)"/>
</clipPath>
</defs>
</svg>
