<svg width="278" height="53" viewBox="0 0 278 53" fill="none" xmlns="http://www.w3.org/2000/svg">
<g clip-path="url(#clip0_2_2521)">
<g clip-path="url(#clip1_2_2521)">
<path fill-rule="evenodd" clip-rule="evenodd" d="M29.4104 0.978517L18.0238 0.978516V4.947H16.332C11.6156 4.947 7.79209 8.77046 7.79209 13.4869L7.79201 22.7369L11.8587 19.8396L11.8587 13.4869C11.8587 11.0164 13.8615 9.01364 16.332 9.01364H31.0963C33.5669 9.01364 35.5696 11.0164 35.5696 13.4869L35.5696 16.8274L39.6363 15.8799L39.6363 13.4869C39.6363 8.77046 35.8128 4.947 31.0963 4.947H29.4104V0.978517ZM11.8585 36.2242L7.79189 37.1723L7.79187 39.8469C7.79187 44.5634 11.6153 48.3868 16.3318 48.3868H31.0961C35.8126 48.3868 39.6361 44.5634 39.6361 39.8469L39.6361 30.3175L35.5695 33.2143L35.5694 39.8469C35.5694 42.3174 33.5667 44.3202 31.0961 44.3202H16.3318C13.8613 44.3202 11.8585 42.3174 11.8585 39.8469L11.8585 36.2242Z" fill="white"/>
<path d="M45.8704 19.5734C45.6384 19.2718 45.2781 19.0386 44.8485 18.9119C44.4189 18.7852 43.9452 18.7724 43.5047 18.8757L28.4782 22.3768L28.4782 16.2329C28.4783 15.9314 28.3618 15.6364 28.1431 15.3845C27.9243 15.1325 27.6129 14.9346 27.2472 14.815C26.8815 14.6955 26.4776 14.6597 26.0853 14.7119C25.693 14.7642 25.3295 14.9022 25.0397 15.1091L1.92482 31.5772C1.58907 31.8162 1.37017 32.1342 1.30379 32.4794C1.23741 32.8247 1.32747 33.1767 1.55928 33.4782C1.79109 33.7797 2.15099 34.0129 2.58031 34.1398C3.00964 34.2666 3.48307 34.2797 3.92345 34.1768L18.954 30.6726L18.954 36.8165C18.9539 37.118 19.0704 37.413 19.2891 37.6649C19.5079 37.9169 19.8193 38.1148 20.185 38.2344C20.5507 38.3539 20.9546 38.3897 21.3469 38.3375C21.7392 38.2852 22.1027 38.1472 22.3925 37.9403L45.5074 21.4753C45.8437 21.2364 46.063 20.9183 46.1297 20.5729C46.1964 20.2275 46.1064 19.8752 45.8745 19.5734L45.8704 19.5734Z" fill="#F4DE49"/>
</g>
<path fill-rule="evenodd" clip-rule="evenodd" d="M103.513 13.7844V17.9987C102.51 17.9782 101.513 18.1579 100.58 18.5274C99.6467 18.8969 98.7968 19.4486 98.0797 20.1504C97.3625 20.8522 96.7924 21.69 96.4028 22.6147C96.0133 23.5394 95.812 24.5325 95.8107 25.536V41.5128H91.8055V14.5436H95.8107V17.5805C96.7745 16.4638 97.9531 15.5522 99.2763 14.9001C100.599 14.2479 102.04 13.8685 103.513 13.7844ZM83.4319 25.0298C83.3972 22.3978 82.585 19.8348 81.0974 17.6631C79.6099 15.4915 77.5134 13.8082 75.0717 12.8249C72.63 11.8417 69.9521 11.6023 67.3747 12.1371C64.7973 12.6718 62.4356 13.9566 60.5865 15.8301C58.7375 17.7035 57.4837 20.0819 56.9828 22.666C56.4819 25.2502 56.7563 27.9248 57.7715 30.3534C58.7866 32.782 60.4973 34.8562 62.6882 36.3152C64.8791 37.7742 67.4526 38.5527 70.0848 38.5529C72.455 38.561 74.784 37.9341 76.8299 36.7374L73.0007 32.0389L76.1147 29.5082L79.9328 34.2066C82.2034 31.6914 83.4515 28.4182 83.4319 25.0298ZM70.0848 42.3821C66.0884 42.3697 62.2195 40.9739 59.1358 38.4318C56.052 35.8897 53.9437 32.3582 53.1691 28.4375C52.3945 24.5168 53.0014 20.4488 54.8867 16.925C56.772 13.4012 59.8194 10.6389 63.5109 9.10765C67.2024 7.57639 71.3102 7.37064 75.1362 8.52537C78.9622 9.68009 82.2703 12.124 84.4983 15.4419C86.7263 18.7597 87.7367 22.7466 87.3577 26.7251C86.9788 30.7035 85.2339 34.428 82.4196 37.2655L86.953 42.8553L83.839 45.386L79.2836 39.7633C76.5244 41.4835 73.3363 42.3911 70.0848 42.3821Z" fill="white"/>
<path fill-rule="evenodd" clip-rule="evenodd" d="M244.675 14.5766V37.8707C244.621 41.3192 243.322 44.632 241.019 47.199C238.715 49.766 235.562 51.4142 232.139 51.8402C228.717 52.2662 225.255 51.4412 222.393 49.5172C219.53 47.5932 217.46 44.6998 216.562 41.3698H220.688C221.408 43.3617 222.726 45.0827 224.461 46.2977C226.196 47.5128 228.264 48.1628 230.382 48.1588C231.725 48.1705 233.058 47.9157 234.302 47.4093C235.547 46.9029 236.678 46.1548 237.632 45.2084C238.585 44.262 239.342 43.1359 239.858 41.8953C240.374 40.6548 240.638 39.3243 240.637 37.9807C238.661 40.0405 236.114 41.4619 233.323 42.0622C230.533 42.6625 227.626 42.4142 224.978 41.3492C222.33 40.2843 220.061 38.4514 218.462 36.0863C216.864 33.7212 216.01 30.9321 216.01 28.0777C216.01 25.2233 216.864 22.4342 218.462 20.0691C220.061 17.704 222.33 15.8711 224.978 14.8062C227.626 13.7412 230.533 13.4929 233.323 14.0932C236.114 14.6935 238.661 16.1149 240.637 18.1747V14.5766H244.675ZM134.685 18.8459C133.331 16.1499 131.102 13.9934 128.363 12.7289C125.624 11.4645 122.537 11.167 119.606 11.8852C116.676 12.6034 114.076 14.2947 112.232 16.6825C110.388 19.0703 109.409 22.0132 109.455 25.0298C109.383 28.0693 110.352 31.0421 112.201 33.4556C114.05 35.8691 116.668 37.5783 119.622 38.2999C122.575 39.0216 125.686 38.7124 128.44 37.4236C131.194 36.1349 133.425 33.9438 134.762 31.2137H139.087C137.641 35.004 134.913 38.1681 131.377 40.156C127.84 42.1439 123.719 42.8299 119.73 42.0949C115.74 41.3599 112.134 39.2502 109.539 36.1326C106.943 33.015 105.521 29.0865 105.521 25.0298C105.521 20.973 106.943 17.0445 109.539 13.9269C112.134 10.8093 115.74 8.69968 119.73 7.96466C123.719 7.22964 127.84 7.91567 131.377 9.90355C134.913 11.8914 137.641 15.0555 139.087 18.8459H134.685ZM263.15 13.7953C266.944 13.7953 270.582 15.3024 273.264 17.985C275.947 20.6676 277.454 24.306 277.454 28.0997C277.457 28.7626 277.409 29.4247 277.311 30.0803H253.104C253.505 32.1449 254.528 34.0372 256.037 35.5029C257.545 36.9685 259.466 37.9372 261.542 38.2787C263.617 38.6201 265.747 38.3181 267.646 37.4131C269.544 36.5081 271.12 35.0435 272.162 33.2163H276.563C275.635 35.656 274.058 37.7954 272.001 39.4028C269.945 41.0102 267.488 42.0242 264.896 42.3352C262.305 42.6461 259.678 42.242 257.299 41.1667C254.921 40.0914 252.882 38.3858 251.404 36.2348C249.925 34.0837 249.064 31.5692 248.912 28.9634C248.76 26.3577 249.325 23.7602 250.544 21.4522C251.763 19.1442 253.59 17.2138 255.827 15.8699C258.065 14.5261 260.628 13.82 263.238 13.8283L263.15 13.7953ZM273.262 26.0861C272.797 23.7466 271.534 21.6408 269.691 20.1275C267.847 18.6142 265.535 17.7871 263.15 17.7871C260.764 17.7871 258.453 18.6142 256.609 20.1275C254.765 21.6408 253.503 23.7466 253.038 26.0861H273.262ZM195.281 14.5766H199.297V41.5568H195.281V37.9917C193.305 40.0515 190.758 41.4729 187.967 42.0732C185.177 42.6735 182.27 42.4252 179.622 41.3602C176.974 40.2953 174.705 38.4624 173.107 36.0973C171.508 33.7322 170.655 30.9431 170.655 28.0887C170.655 25.2343 171.508 22.4452 173.107 20.0801C174.705 17.715 176.974 15.8821 179.622 14.8172C182.27 13.7522 185.177 13.5039 187.967 14.1042C190.758 14.7045 193.305 16.1259 195.281 18.1857V14.5766ZM185.026 17.7675C182.988 17.7762 180.999 18.3886 179.309 19.5272C177.619 20.6659 176.304 22.2798 175.531 24.1651C174.758 26.0504 174.56 28.1226 174.964 30.12C175.368 32.1174 176.354 33.9503 177.799 35.3874C179.244 36.8244 181.082 37.8012 183.081 38.1942C185.081 38.5872 187.152 38.3789 189.033 37.5956C190.914 36.8123 192.521 35.4891 193.651 33.7931C194.78 32.0971 195.382 30.1044 195.38 28.0667C195.377 25.3361 194.291 22.7181 192.36 20.7873C190.429 18.8565 187.811 17.7705 185.081 17.7675H185.026ZM147.416 41.5128H143.4V3.51819H147.416V18.0866C148.409 16.7596 149.695 15.6806 151.175 14.9341C152.654 14.1877 154.287 13.7941 155.944 13.7843C157.358 13.7825 158.758 14.0636 160.062 14.6112C161.365 15.1588 162.546 15.9618 163.535 16.9729C164.523 17.984 165.299 19.1826 165.817 20.4983C166.335 21.814 166.585 23.2201 166.551 24.6336V41.5128H162.535V24.2375C162.55 23.3721 162.391 22.5124 162.069 21.7091C161.746 20.9058 161.266 20.1751 160.657 19.5599C160.048 18.9448 159.323 18.4577 158.523 18.1272C157.723 17.7967 156.865 17.6295 155.999 17.6355C154.892 17.6107 153.791 17.8052 152.759 18.2077C151.727 18.6103 150.786 19.213 149.988 19.981C149.19 20.7491 148.552 21.6675 148.111 22.6831C147.67 23.6988 147.433 24.7918 147.416 25.899V41.5128ZM216.022 18.0756C215.019 18.0552 214.022 18.2349 213.089 18.6044C212.156 18.9739 211.306 19.5256 210.589 20.2274C209.872 20.9292 209.302 21.767 208.912 22.6917C208.523 23.6164 208.321 24.6095 208.32 25.6129V41.5128H204.315V14.5436H208.32V17.5805C209.284 16.4637 210.462 15.5522 211.786 14.9C213.109 14.2479 214.55 13.8685 216.022 13.7843V18.0756ZM230.404 17.8446C228.364 17.8424 226.369 18.4455 224.672 19.5776C222.974 20.7096 221.651 22.3197 220.87 24.2041C220.088 26.0885 219.883 28.1624 220.28 30.1634C220.678 32.1644 221.66 34.0025 223.102 35.4451C224.545 36.8877 226.383 37.8698 228.384 38.2673C230.385 38.6648 232.459 38.4597 234.343 37.678C236.228 36.8962 237.838 35.5731 238.97 33.8759C240.102 32.1787 240.705 30.1838 240.703 28.1437C240.712 26.7852 240.452 25.4383 239.938 24.1805C239.425 22.9227 238.668 21.7788 237.71 20.8145C236.753 19.8503 235.615 19.0847 234.361 18.5618C233.107 18.0389 231.762 17.769 230.404 17.7675V17.8446Z" fill="white"/>
</g>
<defs>
<clipPath id="clip0_2_2521">
<rect width="277.677" height="51.6412" fill="white" transform="translate(0 0.827637)"/>
</clipPath>
<clipPath id="clip1_2_2521">
<rect width="47.4083" height="47.4083" fill="white" transform="translate(0.0126953 0.978516)"/>
</clipPath>
</defs>
</svg>
