<svg width="181" height="34" viewBox="0 0 181 34" fill="none" xmlns="http://www.w3.org/2000/svg">
<g clip-path="url(#clip0_2_2437)">
<g clip-path="url(#clip1_2_2437)">
<path fill-rule="evenodd" clip-rule="evenodd" d="M19.1708 0.0981452L11.7487 0.0981445V2.68494H10.6459C7.57152 2.68494 5.07925 5.17721 5.07925 8.25158L5.07919 14.2811L7.72999 12.3925L7.73003 8.25158C7.73003 6.6412 9.0355 5.33572 10.6459 5.33572H20.2698C21.8802 5.33572 23.1856 6.6412 23.1856 8.25158L23.1856 10.429L25.8364 9.81137L25.8364 8.25158C25.8364 5.17721 23.3441 2.68494 20.2698 2.68494H19.1708V0.0981452ZM7.7299 23.0725L5.07912 23.6905L5.0791 25.4339C5.0791 28.5083 7.57138 31.0006 10.6457 31.0006H20.2696C23.344 31.0006 25.8363 28.5083 25.8363 25.4339L25.8363 19.2224L23.1855 21.1106L23.1855 25.4339C23.1855 27.0443 21.88 28.3498 20.2696 28.3498H10.6457C9.03536 28.3498 7.72988 27.0443 7.72988 25.4339L7.7299 23.0725Z" fill="#121212"/>
<path d="M29.9 12.219C29.7488 12.0224 29.514 11.8704 29.2339 11.7878C28.9539 11.7052 28.6451 11.6969 28.358 11.7642L18.5632 14.0464L18.5632 10.0415C18.5633 9.845 18.4873 9.65275 18.3447 9.48852C18.2021 9.32428 17.9991 9.19524 17.7608 9.11733C17.5224 9.03943 17.2591 9.01606 17.0034 9.05012C16.7477 9.08418 16.5107 9.17417 16.3218 9.30899L1.25472 20.0435C1.03587 20.1993 0.893185 20.4066 0.849917 20.6316C0.806647 20.8566 0.865351 21.0861 1.01645 21.2827C1.16756 21.4792 1.40215 21.6312 1.682 21.7139C1.96185 21.7966 2.27045 21.8051 2.55751 21.738L12.355 19.4539L12.355 23.4587C12.3549 23.6552 12.4308 23.8475 12.5734 24.0117C12.716 24.1759 12.919 24.305 13.1574 24.3829C13.3957 24.4608 13.659 24.4842 13.9147 24.4501C14.1705 24.416 14.4074 24.3261 14.5963 24.1912L29.6634 13.4587C29.8826 13.303 30.0256 13.0956 30.069 12.8705C30.1125 12.6454 30.0539 12.4157 29.9027 12.219L29.9 12.219Z" fill="#EDD747"/>
</g>
<path fill-rule="evenodd" clip-rule="evenodd" d="M67.4734 8.44576V11.1928C66.8195 11.1794 66.1694 11.2966 65.5613 11.5374C64.9532 11.7783 64.3992 12.1379 63.9317 12.5954C63.4643 13.0529 63.0927 13.5989 62.8387 14.2017C62.5848 14.8045 62.4536 15.4518 62.4527 16.1059V26.5202H59.842V8.94066H62.4527V10.9202C63.081 10.1923 63.8492 9.59811 64.7117 9.17302C65.5742 8.74793 66.5134 8.50061 67.4734 8.44576ZM54.3838 15.7759C54.3612 14.0603 53.8318 12.3896 52.8621 10.9741C51.8925 9.55854 50.5259 8.46131 48.9343 7.82038C47.3427 7.17945 45.5972 7.02345 43.9171 7.37199C42.2371 7.72053 40.6977 8.55806 39.4924 9.77924C38.2871 11.0004 37.4698 12.5507 37.1433 14.2352C36.8168 15.9196 36.9957 17.663 37.6574 19.2461C38.3191 20.8291 39.4342 22.1812 40.8623 23.1322C42.2905 24.0832 43.9679 24.5907 45.6837 24.5908C47.2286 24.596 48.7468 24.1874 50.0804 23.4074L47.5844 20.3448L49.6142 18.6951L52.103 21.7577C53.583 20.1182 54.3965 17.9846 54.3838 15.7759ZM45.6837 27.0868C43.0787 27.0787 40.5568 26.1689 38.5467 24.5118C36.5366 22.8548 35.1623 20.5528 34.6574 17.9972C34.1525 15.4415 34.5481 12.7899 35.777 10.493C37.006 8.19599 38.9923 6.39544 41.3986 5.39732C43.8048 4.39919 46.4824 4.26507 48.9764 5.01777C51.4703 5.77046 53.6267 7.36351 55.0789 9.52618C56.5312 11.6888 57.1898 14.2877 56.9428 16.881C56.6958 19.4743 55.5584 21.902 53.7239 23.7516L56.679 27.3952L54.6492 29.0449L51.6798 25.3798C49.8813 26.501 47.8031 27.0927 45.6837 27.0868Z" fill="#121212"/>
<path fill-rule="evenodd" clip-rule="evenodd" d="M159.488 8.96215V24.1461C159.452 26.394 158.606 28.5534 157.105 30.2266C155.603 31.8999 153.548 32.9742 151.317 33.2519C149.086 33.5296 146.829 32.9918 144.964 31.7377C143.098 30.4836 141.748 28.5975 141.162 26.4269H143.852C144.322 27.7253 145.181 28.8471 146.311 29.6391C147.442 30.4312 148.79 30.8548 150.171 30.8523C151.047 30.8599 151.915 30.6938 152.726 30.3637C153.538 30.0336 154.275 29.546 154.897 28.9291C155.518 28.3122 156.012 27.5782 156.348 26.7695C156.684 25.9609 156.857 25.0936 156.856 24.2178C155.568 25.5604 153.907 26.487 152.088 26.8783C150.269 27.2695 148.375 27.1077 146.649 26.4135C144.922 25.7193 143.443 24.5246 142.402 22.983C141.36 21.4413 140.803 19.6233 140.803 17.7627C140.803 15.9021 141.36 14.084 142.402 12.5424C143.443 11.0008 144.922 9.806 146.649 9.11183C148.375 8.41766 150.269 8.25581 152.088 8.6471C153.907 9.03839 155.568 9.96492 156.856 11.3075V8.96215H159.488ZM87.7927 11.745C86.9099 9.98773 85.457 8.582 83.6715 7.7578C81.8859 6.93359 79.8736 6.73969 77.9635 7.20783C76.0535 7.67597 74.3589 8.77843 73.1568 10.3349C71.9548 11.8913 71.3165 13.8096 71.3464 15.7759C71.2996 17.7572 71.9311 19.695 73.1364 21.2682C74.3417 22.8414 76.0483 23.9555 77.9735 24.4259C79.8987 24.8963 81.9268 24.6948 83.7218 23.8547C85.5168 23.0146 86.9708 21.5864 87.8429 19.8068H90.6617C89.7193 22.2775 87.9411 24.34 85.636 25.6357C83.3309 26.9315 80.6446 27.3787 78.0441 26.8996C75.4435 26.4205 73.093 25.0453 71.401 23.0132C69.7091 20.981 68.7826 18.4203 68.7826 15.7759C68.7826 13.1316 69.7091 10.5708 71.401 8.53868C73.093 6.50651 75.4435 5.13139 78.0441 4.65227C80.6446 4.17316 83.3309 4.62035 85.636 5.91611C87.9411 7.21188 89.7193 9.27433 90.6617 11.745H87.7927ZM171.53 8.45292C174.003 8.45292 176.375 9.43527 178.123 11.1839C179.872 12.9325 180.854 15.3041 180.854 17.777C180.856 18.2091 180.825 18.6407 180.761 19.0681H164.982C165.243 20.4138 165.911 21.6473 166.894 22.6027C167.877 23.558 169.129 24.1894 170.482 24.412C171.835 24.6346 173.223 24.4377 174.461 23.8478C175.698 23.2579 176.726 22.3032 177.405 21.1122H180.273C179.669 22.7025 178.641 24.097 177.3 25.1448C175.96 26.1925 174.358 26.8535 172.669 27.0562C170.98 27.2589 169.267 26.9955 167.717 26.2946C166.166 25.5936 164.838 24.4819 163.874 23.0798C162.91 21.6776 162.349 20.0385 162.25 18.34C162.151 16.6415 162.519 14.9484 163.313 13.444C164.108 11.9395 165.299 10.6812 166.757 9.8052C168.216 8.92923 169.886 8.46902 171.588 8.47443L171.53 8.45292ZM178.122 16.4645C177.818 14.9395 176.996 13.5668 175.794 12.5804C174.592 11.594 173.085 11.0549 171.53 11.0549C169.975 11.0549 168.469 11.594 167.267 12.5804C166.065 13.5668 165.242 14.9395 164.939 16.4645H178.122ZM127.291 8.96215H129.909V26.5488H127.291V24.225C126.003 25.5676 124.343 26.4941 122.524 26.8854C120.705 27.2767 118.81 27.1149 117.084 26.4207C115.358 25.7265 113.879 24.5318 112.837 22.9901C111.795 21.4485 111.239 19.6304 111.239 17.7698C111.239 15.9093 111.795 14.0912 112.837 12.5496C113.879 11.0079 115.358 9.81317 117.084 9.119C118.81 8.42483 120.705 8.26298 122.524 8.65427C124.343 9.04556 126.003 9.97209 127.291 11.3147V8.96215ZM120.606 11.0421C119.278 11.0478 117.981 11.447 116.88 12.1892C115.778 12.9314 114.921 13.9834 114.417 15.2123C113.913 16.4412 113.785 17.792 114.048 19.0939C114.311 20.3959 114.954 21.5907 115.896 22.5274C116.837 23.4641 118.036 24.1008 119.339 24.357C120.642 24.6131 121.992 24.4774 123.218 23.9668C124.445 23.4562 125.492 22.5937 126.228 21.4882C126.965 20.3827 127.357 19.0838 127.356 17.7555C127.354 15.9756 126.646 14.2691 125.387 13.0105C124.129 11.752 122.422 11.044 120.642 11.0421H120.606ZM96.0912 26.5202H93.4732V1.75391H96.0912V11.2501C96.7381 10.3851 97.5767 9.68178 98.5411 9.19522C99.5056 8.70866 100.57 8.45213 101.65 8.44574C102.571 8.44452 103.484 8.62779 104.334 8.98474C105.184 9.34169 105.953 9.86511 106.598 10.5242C107.242 11.1832 107.748 11.9646 108.086 12.8222C108.423 13.6798 108.586 14.5963 108.564 15.5177V26.5202H105.946V15.2595C105.956 14.6954 105.852 14.135 105.642 13.6114C105.432 13.0878 105.119 12.6115 104.722 12.2105C104.325 11.8095 103.852 11.492 103.331 11.2766C102.809 11.0611 102.25 10.9522 101.686 10.9561C100.964 10.9399 100.246 11.0667 99.5737 11.3291C98.9013 11.5915 98.2873 11.9843 97.7673 12.485C97.2473 12.9856 96.8315 13.5842 96.5438 14.2463C96.2562 14.9084 96.1023 15.6208 96.0912 16.3425V26.5202ZM140.811 11.243C140.157 11.2296 139.507 11.3468 138.899 11.5876C138.291 11.8285 137.737 12.1881 137.269 12.6456C136.802 13.103 136.43 13.6491 136.176 14.2519C135.922 14.8546 135.791 15.502 135.79 16.1561V26.5202H133.18V8.94064H135.79V10.9202C136.419 10.1923 137.187 9.59809 138.049 9.173C138.912 8.74791 139.851 8.50059 140.811 8.44574V11.243ZM150.185 11.0924C148.855 11.0909 147.555 11.4841 146.449 12.222C145.343 12.9599 144.48 14.0094 143.971 15.2377C143.461 16.466 143.327 17.8179 143.586 19.1222C143.845 20.4266 144.486 21.6247 145.426 22.565C146.366 23.5053 147.564 24.1455 148.869 24.4046C150.173 24.6637 151.525 24.53 152.753 24.0205C153.982 23.5109 155.031 22.6484 155.769 21.5421C156.507 20.4358 156.9 19.1355 156.899 17.8057C156.904 16.9201 156.735 16.0422 156.4 15.2223C156.065 14.4024 155.572 13.6568 154.948 13.0283C154.324 12.3997 153.582 11.9007 152.765 11.5599C151.948 11.219 151.071 11.0431 150.185 11.0421V11.0924Z" fill="#121212"/>
</g>
<defs>
<clipPath id="clip0_2_2437">
<rect width="181" height="34" fill="white"/>
</clipPath>
<clipPath id="clip1_2_2437">
<rect width="30.9024" height="30.9024" fill="white" transform="translate(0.00830078 0.0981445)"/>
</clipPath>
</defs>
</svg>
