<svg width="56" height="57" viewBox="0 0 56 57" fill="none" xmlns="http://www.w3.org/2000/svg">
<g clip-path="url(#clip0_801_663)">
<path fill-rule="evenodd" clip-rule="evenodd" d="M34.7254 0.57129L21.2752 0.571289V5.25897H19.2768C13.7056 5.25897 9.18923 9.77535 9.18923 15.3466L9.18913 26.2729L13.9928 22.8506L13.9929 15.3466C13.9929 12.4283 16.3586 10.0626 19.2768 10.0626H36.7168C39.6351 10.0626 42.0008 12.4283 42.0008 15.3466L42.0008 19.2924L46.8044 18.1732L46.8044 15.3466C46.8044 9.77534 42.2881 5.25897 36.7168 5.25897H34.7254V0.57129ZM13.9926 42.2044L9.18899 43.3243L9.18896 46.4837C9.18896 52.0549 13.7054 56.5713 19.2766 56.5713H36.7166C42.2878 56.5713 46.8042 52.0549 46.8042 46.4837L46.8043 35.2273L42.0006 38.649L42.0006 46.4837C42.0006 49.4019 39.6348 51.7677 36.7166 51.7677H19.2766C16.3583 51.7677 13.9926 49.4019 13.9926 46.4837L13.9926 42.2044Z" fill="white"/>
<path d="M54.1684 22.5361C53.8943 22.1798 53.4688 21.9044 52.9613 21.7547C52.4538 21.605 51.8943 21.5899 51.374 21.7119L33.6242 25.8475L33.6242 18.5901C33.6244 18.234 33.4868 17.8856 33.2284 17.588C32.97 17.2903 32.6021 17.0565 32.1702 16.9153C31.7382 16.7741 31.2611 16.7318 30.7977 16.7935C30.3343 16.8553 29.905 17.0183 29.5626 17.2626L2.25869 36.7153C1.8621 36.9976 1.60353 37.3732 1.52512 37.781C1.44671 38.1888 1.55309 38.6046 1.82691 38.9608C2.10073 39.3169 2.52585 39.5924 3.03298 39.7422C3.54012 39.8921 4.09935 39.9075 4.61953 39.786L22.3741 35.6467L22.3741 42.9041C22.3739 43.2602 22.5115 43.6086 22.7699 43.9062C23.0283 44.2039 23.3962 44.4377 23.8281 44.5789C24.2601 44.7201 24.7372 44.7624 25.2006 44.7007C25.664 44.639 26.0934 44.4759 26.4357 44.2316L53.7396 24.7826C54.1368 24.5004 54.3959 24.1246 54.4747 23.7166C54.5534 23.3086 54.4472 22.8925 54.1733 22.5361L54.1684 22.5361Z" fill="#EDD747"/>
</g>
<defs>
<clipPath id="clip0_801_663">
<rect width="56" height="56" fill="white" transform="translate(0 0.571289)"/>
</clipPath>
</defs>
</svg>
