<svg width="71" height="67" viewBox="0 0 71 67" fill="none" xmlns="http://www.w3.org/2000/svg">
<g filter="url(#filter0_bd_801_2281)">
<path d="M31 10.4688C19.4031 10.4688 10 19.8719 10 31.4688C10 43.0656 19.4031 52.4688 31 52.4688C42.5969 52.4688 52 43.0656 52 31.4688C52 19.8719 42.5969 10.4688 31 10.4688ZM33.9766 28.0844C34.1828 28.0844 34.3516 28.2531 34.3516 28.4594V29.7344C34.3516 29.9406 34.1828 30.1094 33.9766 30.1094H27.6016C27.5875 30.3156 27.5875 30.5359 27.5875 30.7562V32.4437H33.9719C34.1781 32.4437 34.3469 32.6125 34.3469 32.8187V34.0938C34.3469 34.3 34.1781 34.4688 33.9719 34.4688H27.8547C28.5719 37.375 30.7281 39.0906 33.9391 39.0906C34.8719 39.0906 35.6781 39.0344 36.3672 38.8984C36.5969 38.8516 36.8125 39.0297 36.8125 39.2641V41.2703C36.8125 41.4484 36.6859 41.5984 36.5125 41.6359C35.7672 41.7953 34.9047 41.875 33.9203 41.875C28.7734 41.875 25.3422 39.1187 24.5359 34.4688H23.125C22.9187 34.4688 22.75 34.3 22.75 34.0938V32.8187C22.75 32.6125 22.9187 32.4437 23.125 32.4437H24.3484V30.7141C24.3484 30.5078 24.3484 30.3016 24.3625 30.1141H23.125C22.9187 30.1141 22.75 29.9453 22.75 29.7391V28.4641C22.75 28.2578 22.9187 28.0891 23.125 28.0891H24.6109C25.5344 23.6734 28.9234 21.0625 33.9203 21.0625C34.9 21.0625 35.7672 21.1516 36.5125 21.3156C36.6859 21.3531 36.8078 21.5031 36.8078 21.6813V23.6875H36.8125C36.8125 23.9266 36.5969 24.1 36.3625 24.0531C35.6734 23.9172 34.8719 23.8469 33.9391 23.8469C30.8734 23.8469 28.7641 25.4172 27.9578 28.0844H33.9766Z" fill="url(#paint0_linear_801_2281)" fill-opacity="0.5" shape-rendering="crispEdges"/>
<path d="M37.0578 23.4375H37.0625V23.6875C37.0625 24.0872 36.6999 24.3751 36.3141 24.2984L37.0578 23.4375ZM37.0578 23.4375V21.6813C37.0578 21.3852 36.8537 21.1341 36.5662 21.0715C35.8002 20.9029 34.9147 20.8125 33.9203 20.8125C31.3784 20.8125 29.2258 21.477 27.5869 22.7208C25.995 23.929 24.9047 25.6712 24.4097 27.8391H23.125C22.7807 27.8391 22.5 28.1197 22.5 28.4641V29.7391C22.5 30.0834 22.7807 30.3641 23.125 30.3641H24.101C24.0984 30.4792 24.0984 30.5958 24.0984 30.7087V30.7141V32.1937H23.125C22.7807 32.1937 22.5 32.4744 22.5 32.8187V34.0938C22.5 34.4381 22.7807 34.7188 23.125 34.7188H24.3275C24.7659 37.0002 25.8375 38.8368 27.4451 40.1115C29.0996 41.4236 31.3023 42.125 33.9203 42.125C34.9175 42.125 35.7982 42.0443 36.5648 41.8804L36.5653 41.8803C36.8487 41.819 37.0625 41.5713 37.0625 41.2703V39.2641C37.0625 38.8735 36.7038 38.5746 36.3172 38.6535L36.3672 38.8984L36.3188 38.6532C35.6518 38.7848 34.8633 38.8406 33.9391 38.8406C32.3788 38.8406 31.0933 38.4244 30.1141 37.6714C29.2084 36.9748 28.5492 35.9781 28.1809 34.7188H33.9719C34.3162 34.7188 34.5969 34.4381 34.5969 34.0938V32.8187C34.5969 32.4744 34.3162 32.1937 33.9719 32.1937H27.8375V30.7562C27.8375 30.6196 27.8375 30.4869 27.8407 30.3594H33.9766C34.3209 30.3594 34.6016 30.0787 34.6016 29.7344V28.4594C34.6016 28.1151 34.3209 27.8344 33.9766 27.8344H28.3031C28.7071 26.6998 29.3673 25.8 30.247 25.1685C31.209 24.4779 32.4495 24.0969 33.9391 24.0969C34.8597 24.0969 35.6444 24.1663 36.3138 24.2983L37.0578 23.4375ZM10.25 31.4688C10.25 20.0099 19.5412 10.7188 31 10.7188C42.4588 10.7188 51.75 20.0099 51.75 31.4688C51.75 42.9276 42.4588 52.2188 31 52.2188C19.5412 52.2188 10.25 42.9276 10.25 31.4688Z" stroke="url(#paint1_linear_801_2281)" stroke-width="0.5" shape-rendering="crispEdges"/>
</g>
<g filter="url(#filter1_bd_801_2281)">
<path d="M57.8624 27.8638C57.7486 27.7159 57.572 27.6016 57.3613 27.5395C57.1506 27.4773 56.9184 27.4711 56.7024 27.5217L49.3346 29.2384L49.3346 26.2259C49.3347 26.0781 49.2776 25.9334 49.1703 25.8099C49.063 25.6864 48.9103 25.5893 48.731 25.5307C48.5517 25.4721 48.3537 25.4545 48.1613 25.4801C47.969 25.5058 47.7907 25.5734 47.6486 25.6749L36.3149 33.7495C36.1503 33.8667 36.043 34.0226 36.0104 34.1919C35.9779 34.3612 36.022 34.5338 36.1357 34.6816C36.2494 34.8295 36.4258 34.9438 36.6363 35.006C36.8468 35.0682 37.079 35.0746 37.2949 35.0242L44.6647 33.306L44.6647 36.3185C44.6646 36.4663 44.7218 36.6109 44.829 36.7345C44.9363 36.858 45.089 36.9551 45.2683 37.0137C45.4476 37.0723 45.6456 37.0898 45.838 37.0642C46.0303 37.0386 46.2086 36.9709 46.3507 36.8695L57.6844 28.7963C57.8492 28.6792 57.9568 28.5232 57.9895 28.3539C58.0222 28.1845 57.9781 28.0118 57.8644 27.8638L57.8624 27.8638Z" fill="#F4DE49"/>
</g>
<defs>
<filter id="filter0_bd_801_2281" x="0" y="0.46875" width="66" height="66" filterUnits="userSpaceOnUse" color-interpolation-filters="sRGB">
<feFlood flood-opacity="0" result="BackgroundImageFix"/>
<feGaussianBlur in="BackgroundImageFix" stdDeviation="0.596129"/>
<feComposite in2="SourceAlpha" operator="in" result="effect1_backgroundBlur_801_2281"/>
<feColorMatrix in="SourceAlpha" type="matrix" values="0 0 0 0 0 0 0 0 0 0 0 0 0 0 0 0 0 0 127 0" result="hardAlpha"/>
<feOffset dx="2" dy="2"/>
<feGaussianBlur stdDeviation="6"/>
<feComposite in2="hardAlpha" operator="out"/>
<feColorMatrix type="matrix" values="0 0 0 0 0.469583 0 0 0 0 0.569926 0 0 0 0 0.7 0 0 0 0.8 0"/>
<feBlend mode="normal" in2="effect1_backgroundBlur_801_2281" result="effect2_dropShadow_801_2281"/>
<feBlend mode="normal" in="SourceGraphic" in2="effect2_dropShadow_801_2281" result="shape"/>
</filter>
<filter id="filter1_bd_801_2281" x="26" y="15.4687" width="46" height="35.607" filterUnits="userSpaceOnUse" color-interpolation-filters="sRGB">
<feFlood flood-opacity="0" result="BackgroundImageFix"/>
<feGaussianBlur in="BackgroundImageFix" stdDeviation="0.596129"/>
<feComposite in2="SourceAlpha" operator="in" result="effect1_backgroundBlur_801_2281"/>
<feColorMatrix in="SourceAlpha" type="matrix" values="0 0 0 0 0 0 0 0 0 0 0 0 0 0 0 0 0 0 127 0" result="hardAlpha"/>
<feOffset dx="2" dy="2"/>
<feGaussianBlur stdDeviation="6"/>
<feComposite in2="hardAlpha" operator="out"/>
<feColorMatrix type="matrix" values="0 0 0 0 0.469583 0 0 0 0 0.569926 0 0 0 0 0.7 0 0 0 0.8 0"/>
<feBlend mode="normal" in2="effect1_backgroundBlur_801_2281" result="effect2_dropShadow_801_2281"/>
<feBlend mode="normal" in="SourceGraphic" in2="effect2_dropShadow_801_2281" result="shape"/>
</filter>
<linearGradient id="paint0_linear_801_2281" x1="-29.2313" y1="57.6208" x2="43.945" y2="84.9842" gradientUnits="userSpaceOnUse">
<stop stop-color="white"/>
<stop offset="1" stop-color="#A7C2E5"/>
</linearGradient>
<linearGradient id="paint1_linear_801_2281" x1="-7.31229" y1="-12.406" x2="80.6669" y2="59.7512" gradientUnits="userSpaceOnUse">
<stop stop-color="white"/>
<stop offset="1" stop-color="white" stop-opacity="0"/>
</linearGradient>
</defs>
</svg>
