<svg width="69" height="61" viewBox="0 0 69 61" fill="none" xmlns="http://www.w3.org/2000/svg">
<g filter="url(#filter0_bd_801_168)">
<path d="M43.7103 12.9078C43.6899 12.5589 43.5421 12.2295 43.295 11.9824C43.0478 11.7352 42.7185 11.5874 42.3695 11.567C28.7958 10.77 17.9233 14.8566 13.2876 22.5233C11.6807 25.1459 10.8889 28.1866 11.0126 31.2598C11.0933 33.2251 11.4931 35.1641 12.1964 37.001C12.2378 37.114 12.307 37.2148 12.3978 37.2938C12.4885 37.3729 12.5978 37.4277 12.7155 37.4532C12.8331 37.4786 12.9553 37.4739 13.0706 37.4394C13.1859 37.4049 13.2906 37.3418 13.375 37.2559L28.5302 21.869C28.6627 21.7365 28.82 21.6313 28.9932 21.5596C29.1663 21.4879 29.3519 21.451 29.5393 21.451C29.7267 21.451 29.9123 21.4879 30.0855 21.5596C30.2586 21.6313 30.4159 21.7365 30.5485 21.869C30.681 22.0015 30.7861 22.1588 30.8578 22.332C30.9296 22.5051 30.9665 22.6907 30.9665 22.8781C30.9665 23.0655 30.9296 23.2511 30.8578 23.4243C30.7861 23.5974 30.681 23.7548 30.5485 23.8873L13.9865 40.6988L11.4565 43.2289C11.1934 43.485 11.0363 43.8308 11.0165 44.1975C10.9967 44.5642 11.1156 44.9249 11.3495 45.2079C11.4777 45.3563 11.635 45.4767 11.8118 45.5616C11.9885 45.6464 12.1808 45.6939 12.3768 45.7011C12.5727 45.7083 12.768 45.675 12.9505 45.6034C13.133 45.5317 13.2987 45.4232 13.4374 45.2846L16.431 42.291C18.9521 43.5106 21.4964 44.1756 24.0193 44.2648C24.2178 44.2719 24.4157 44.2755 24.613 44.2755C27.4861 44.2828 30.3046 43.4914 32.754 41.9897C40.4207 37.354 44.5091 26.4833 43.7103 12.9078Z" fill="url(#paint0_linear_801_168)" fill-opacity="0.5" shape-rendering="crispEdges"/>
<path d="M43.4391 12.9236L43.4391 12.9238C44.2353 26.4562 40.1537 37.198 32.6134 41.7572L32.612 41.7581C30.2056 43.2335 27.4364 44.011 24.6137 44.0038H24.613C24.4189 44.0038 24.2243 44.0003 24.029 43.9932L24.0289 43.9932C21.5479 43.9056 19.0405 43.2515 16.5493 42.0464L16.3754 41.9623L16.2389 42.0989L13.2453 45.0924C13.1331 45.2046 12.9989 45.2925 12.8512 45.3505C12.7034 45.4085 12.5453 45.4354 12.3867 45.4296C12.2281 45.4238 12.0724 45.3853 11.9293 45.3166C11.7872 45.2484 11.6605 45.1517 11.5571 45.0326C11.3678 44.8025 11.2717 44.5098 11.2878 44.2122C11.3039 43.9136 11.4318 43.6321 11.646 43.4235L11.6461 43.4235L11.6486 43.421L14.1787 40.891L14.1801 40.8895L30.7406 24.0794C30.7408 24.0792 30.741 24.079 30.7412 24.0788C30.8987 23.9211 31.0236 23.7341 31.1088 23.5283C31.1942 23.3221 31.2382 23.1012 31.2382 22.8781C31.2382 22.655 31.1942 22.4341 31.1088 22.228C31.0235 22.0219 30.8983 21.8346 30.7406 21.6769C30.5828 21.5191 30.3956 21.394 30.1894 21.3086C29.9833 21.2232 29.7624 21.1793 29.5393 21.1793C29.3162 21.1793 29.0953 21.2232 28.8892 21.3086C28.6831 21.394 28.4958 21.5191 28.338 21.6769L28.3366 21.6783L13.1814 37.0653L13.1812 37.0655C13.129 37.1187 13.0641 37.1577 12.9928 37.1791C12.9214 37.2004 12.8457 37.2034 12.7729 37.1876C12.7001 37.1719 12.6324 37.1379 12.5763 37.089L12.3978 37.2938L12.5763 37.089C12.5201 37.04 12.4772 36.9777 12.4516 36.9077L12.4516 36.9077L12.4502 36.9038C11.7574 35.0946 11.3635 33.1846 11.284 31.2489C11.1626 28.2295 11.9405 25.242 13.5193 22.6653L13.5201 22.6639C18.0793 15.1236 28.8229 11.0438 42.3536 11.8382L42.3537 11.8382C42.6362 11.8547 42.9028 11.9744 43.1028 12.1745C43.3029 12.3746 43.4226 12.6412 43.4391 12.9236ZM32.754 41.9897C40.4207 37.354 44.5091 26.4833 43.7103 12.9078L16.431 42.291C18.9521 43.5106 21.4964 44.1756 24.0193 44.2648C24.2178 44.2719 24.4157 44.2755 24.613 44.2755C27.4861 44.2828 30.3046 43.4914 32.754 41.9897Z" stroke="url(#paint1_linear_801_168)" stroke-width="0.543379" shape-rendering="crispEdges"/>
</g>
<path fill-rule="evenodd" clip-rule="evenodd" d="M47.1952 17.7179L41.9748 17.7179V19.5373H41.1992C39.0368 19.5373 37.2839 21.2902 37.2839 23.4526L37.2839 27.6934L39.1483 26.3651L39.1483 23.4526C39.1483 22.3199 40.0665 21.4017 41.1992 21.4017H47.9681C49.1008 21.4017 50.019 22.3199 50.019 23.4526L50.019 24.984L51.8834 24.5496L51.8834 23.4526C51.8834 21.2902 50.1305 19.5373 47.9681 19.5373H47.1952V17.7179ZM39.1482 33.8768L37.2838 34.3115L37.2838 35.5377C37.2838 37.7001 39.0367 39.453 41.1991 39.453H47.968C50.1304 39.453 51.8833 37.7001 51.8833 35.5377L51.8834 31.1688L50.0189 32.4969L50.0189 35.5377C50.0189 36.6704 49.1007 37.5886 47.968 37.5886H41.1991C40.0664 37.5886 39.1482 36.6704 39.1482 35.5377L39.1482 33.8768Z" fill="white"/>
<g filter="url(#filter1_bd_801_168)">
<path d="M54.7416 26.243C54.6352 26.1047 54.4701 25.9978 54.2731 25.9397C54.0761 25.8816 53.8589 25.8758 53.657 25.9231L46.7678 27.5283L46.7678 24.7115C46.7679 24.5732 46.7145 24.438 46.6142 24.3225C46.5139 24.207 46.3711 24.1162 46.2035 24.0614C46.0358 24.0066 45.8506 23.9902 45.6708 24.0142C45.4909 24.0381 45.3243 24.1014 45.1914 24.1962L34.594 31.7463C34.4401 31.8559 34.3397 32.0017 34.3093 32.16C34.2788 32.3183 34.3201 32.4797 34.4264 32.6179C34.5327 32.7561 34.6977 32.863 34.8945 32.9212C35.0914 32.9794 35.3084 32.9853 35.5103 32.9382L42.4013 31.3316L42.4013 34.1484C42.4013 34.2866 42.4547 34.4218 42.555 34.5374C42.6553 34.6529 42.798 34.7436 42.9657 34.7984C43.1333 34.8532 43.3185 34.8697 43.4984 34.8457C43.6782 34.8217 43.8449 34.7585 43.9778 34.6636L54.5752 27.1149C54.7293 27.0054 54.8299 26.8596 54.8605 26.7012C54.891 26.5429 54.8498 26.3813 54.7435 26.243L54.7416 26.243Z" fill="#F4DE49"/>
</g>
<defs>
<filter id="filter0_bd_801_168" x="0.132421" y="0.601171" width="58.8911" height="60.3155" filterUnits="userSpaceOnUse" color-interpolation-filters="sRGB">
<feFlood flood-opacity="0" result="BackgroundImageFix"/>
<feGaussianBlur in="BackgroundImageFix" stdDeviation="0.647848"/>
<feComposite in2="SourceAlpha" operator="in" result="effect1_backgroundBlur_801_168"/>
<feColorMatrix in="SourceAlpha" type="matrix" values="0 0 0 0 0 0 0 0 0 0 0 0 0 0 0 0 0 0 127 0" result="hardAlpha"/>
<feOffset dx="2.17352" dy="2.17352"/>
<feGaussianBlur stdDeviation="6.52055"/>
<feComposite in2="hardAlpha" operator="out"/>
<feColorMatrix type="matrix" values="0 0 0 0 0.469583 0 0 0 0 0.569926 0 0 0 0 0.7 0 0 0 0.8 0"/>
<feBlend mode="normal" in2="effect1_backgroundBlur_801_168" result="effect2_dropShadow_801_168"/>
<feBlend mode="normal" in="SourceGraphic" in2="effect2_dropShadow_801_168" result="shape"/>
</filter>
<filter id="filter1_bd_801_168" x="24.2995" y="14.0034" width="44.5708" height="34.853" filterUnits="userSpaceOnUse" color-interpolation-filters="sRGB">
<feFlood flood-opacity="0" result="BackgroundImageFix"/>
<feGaussianBlur in="BackgroundImageFix" stdDeviation="0.596129"/>
<feComposite in2="SourceAlpha" operator="in" result="effect1_backgroundBlur_801_168"/>
<feColorMatrix in="SourceAlpha" type="matrix" values="0 0 0 0 0 0 0 0 0 0 0 0 0 0 0 0 0 0 127 0" result="hardAlpha"/>
<feOffset dx="2" dy="2"/>
<feGaussianBlur stdDeviation="6"/>
<feComposite in2="hardAlpha" operator="out"/>
<feColorMatrix type="matrix" values="0 0 0 0 0.469583 0 0 0 0 0.569926 0 0 0 0 0.7 0 0 0 0.8 0"/>
<feBlend mode="normal" in2="effect1_backgroundBlur_801_168" result="effect2_dropShadow_801_168"/>
<feBlend mode="normal" in="SourceGraphic" in2="effect2_dropShadow_801_168" result="shape"/>
</filter>
<linearGradient id="paint0_linear_801_168" x1="-19.6461" y1="49.9014" x2="38.0938" y2="70.5942" gradientUnits="userSpaceOnUse">
<stop stop-color="white"/>
<stop offset="1" stop-color="#A7C2E5"/>
</linearGradient>
<linearGradient id="paint1_linear_801_168" x1="-2.52376" y1="-7.176" x2="68.5309" y2="48.6756" gradientUnits="userSpaceOnUse">
<stop stop-color="white"/>
<stop offset="1" stop-color="white" stop-opacity="0"/>
</linearGradient>
</defs>
</svg>
