<svg width="67" height="61" viewBox="0 0 67 61" fill="none" xmlns="http://www.w3.org/2000/svg">
<g filter="url(#filter0_bd_801_416)">
<path d="M12.2734 20.7141C13.5295 20.7141 14.5468 21.7315 14.5468 22.9875V32.0925C14.5468 33.0587 14.9276 33.9851 15.6096 34.6671L18.5139 37.5714C18.9856 38.0431 19.7245 38.117 20.2758 37.7476C21.0089 37.2588 21.1112 36.2187 20.4861 35.5992L19.6222 34.7353L17.8034 32.9166C17.093 32.2062 17.093 31.0524 17.8034 30.342C18.5139 29.6315 19.6676 29.6315 20.3781 30.342L22.1968 32.1607L23.0607 33.0246L24.4986 34.4625C25.6921 35.656 26.3628 37.2758 26.3628 38.9638V43.4481C26.3628 44.9542 25.1408 46.1762 23.6347 46.1762H19.8495C18.8833 46.1762 17.9569 45.7954 17.2749 45.1134L11.5971 39.4356C10.574 38.4125 10 37.0258 10 35.5765V22.9875C10 21.7315 11.0173 20.7141 12.2734 20.7141Z" fill="url(#paint0_linear_801_416)" fill-opacity="0.5" shape-rendering="crispEdges"/>
<path d="M12.2734 20.9641C13.3914 20.9641 14.2968 21.8695 14.2968 22.9875V32.0925C14.2968 33.1244 14.7035 34.1146 15.4328 34.8439L18.3371 37.7482C18.8926 38.3036 19.7637 38.3917 20.4149 37.9552C21.2786 37.3791 21.3999 36.1533 20.6625 35.422C20.6623 35.4219 20.6622 35.4218 20.662 35.4216L19.7989 34.5585L17.9802 32.7398C17.3674 32.127 17.3674 31.1315 17.9802 30.5187C18.593 29.9059 19.5885 29.9059 20.2013 30.5187L22.02 32.3375L22.8839 33.2014L24.3218 34.6393C25.4685 35.7859 26.1128 37.3421 26.1128 38.9638V43.4481C26.1128 44.8162 25.0028 45.9262 23.6347 45.9262H19.8495C18.949 45.9262 18.0864 45.5713 17.4517 44.9366L11.7738 39.2588C10.7978 38.2827 10.25 36.9596 10.25 35.5765V22.9875C10.25 21.8695 11.1554 20.9641 12.2734 20.9641Z" stroke="url(#paint1_linear_801_416)" stroke-width="0.5" shape-rendering="crispEdges"/>
</g>
<g filter="url(#filter1_bd_801_416)">
<path d="M50.4532 20.7141C49.1971 20.7141 48.1798 21.7315 48.1798 22.9875V32.0925C48.1798 33.0587 47.799 33.9851 47.1169 34.6671L44.2127 37.5714C43.7409 38.0431 43.0021 38.117 42.4508 37.7476C41.7176 37.2588 41.6153 36.2187 42.2405 35.5992L43.1044 34.7353L44.9231 32.9166C45.6336 32.2061 45.6336 31.0524 44.9231 30.342C44.2127 29.6315 43.0589 29.6315 42.3485 30.342L40.5298 32.1607L39.6659 33.0246L38.228 34.4625C37.0344 35.656 36.3638 37.2758 36.3638 38.9638V43.4481C36.3638 44.9542 37.5857 46.1762 39.0918 46.1762H42.8771C43.8433 46.1762 44.7697 45.7954 45.4517 45.1134L51.1295 39.4356C52.1525 38.4125 52.7266 37.0258 52.7266 35.5765V22.9875C52.7266 21.7315 51.7092 20.7141 50.4532 20.7141Z" fill="url(#paint2_linear_801_416)" fill-opacity="0.5" shape-rendering="crispEdges"/>
<path d="M50.4532 20.9641C49.3352 20.9641 48.4298 21.8695 48.4298 22.9875V32.0925C48.4298 33.1244 48.023 34.1146 47.2937 34.8439L44.3895 37.7482C43.834 38.3036 42.9629 38.3917 42.3116 37.9552C41.448 37.3791 41.3267 36.1534 42.064 35.4222C42.0642 35.422 42.0644 35.4218 42.0645 35.4216L42.9276 34.5585L44.7463 32.7398C45.3591 32.127 45.3591 31.1315 44.7463 30.5187C44.1335 29.9059 43.1381 29.9059 42.5253 30.5187L40.7065 32.3375L39.8427 33.2014L38.4047 34.6393C37.2581 35.7859 36.6138 37.3421 36.6138 38.9638V43.4481C36.6138 44.8162 37.7238 45.9262 39.0918 45.9262H42.8771C43.7775 45.9262 44.6402 45.5713 45.2749 44.9366L50.9527 39.2588C51.9288 38.2827 52.4766 36.9596 52.4766 35.5765V22.9875C52.4766 21.8695 51.5711 20.9641 50.4532 20.9641Z" stroke="url(#paint3_linear_801_416)" stroke-width="0.5" shape-rendering="crispEdges"/>
</g>
<path fill-rule="evenodd" clip-rule="evenodd" d="M33.7917 3.46875L28.2086 3.46875V5.41458H27.3791C25.0665 5.41458 23.1918 7.2893 23.1918 9.60189L23.1917 14.1373L25.1857 12.7167L25.1857 9.60189C25.1857 8.39053 26.1677 7.40854 27.3791 7.40854H34.6183C35.8297 7.40854 36.8117 8.39054 36.8117 9.60189L36.8116 11.2398L38.8056 10.7752L38.8056 9.60189C38.8056 7.2893 36.9309 5.41458 34.6183 5.41458H33.7917V3.46875ZM25.1856 20.7504L23.1917 21.2153L23.1917 22.5267C23.1917 24.8393 25.0664 26.714 27.379 26.714H34.6182C36.9308 26.714 38.8055 24.8393 38.8055 22.5267L38.8056 17.8543L36.8116 19.2746L36.8116 22.5267C36.8116 23.7381 35.8296 24.7201 34.6182 24.7201H27.379C26.1676 24.7201 25.1856 23.7381 25.1856 22.5267L25.1856 20.7504Z" fill="white"/>
<g filter="url(#filter2_bd_801_416)">
<path d="M41.8623 12.5862C41.7485 12.4383 41.5719 12.324 41.3612 12.2619C41.1506 12.1997 40.9183 12.1935 40.7023 12.2441L33.3345 13.9608L33.3345 10.9483C33.3346 10.8004 33.2775 10.6558 33.1702 10.5323C33.063 10.4087 32.9103 10.3117 32.731 10.2531C32.5517 10.1945 32.3536 10.1769 32.1613 10.2025C31.9689 10.2281 31.7907 10.2958 31.6486 10.3972L20.3149 18.4719C20.1502 18.5891 20.0429 18.745 20.0104 18.9143C19.9778 19.0836 20.022 19.2562 20.1356 19.404C20.2493 19.5519 20.4258 19.6662 20.6363 19.7284C20.8468 19.7906 21.0789 19.797 21.2948 19.7465L28.6647 18.0284L28.6647 21.0409C28.6646 21.1887 28.7217 21.3333 28.8289 21.4568C28.9362 21.5804 29.0889 21.6774 29.2682 21.7361C29.4475 21.7947 29.6456 21.8122 29.8379 21.7866C30.0303 21.761 30.2085 21.6933 30.3506 21.5919L41.6843 13.5187C41.8492 13.4016 41.9567 13.2456 41.9894 13.0763C42.0221 12.9069 41.978 12.7342 41.8643 12.5862L41.8623 12.5862Z" fill="#F4DE49"/>
</g>
<defs>
<filter id="filter0_bd_801_416" x="0" y="10.7141" width="40.3628" height="49.4621" filterUnits="userSpaceOnUse" color-interpolation-filters="sRGB">
<feFlood flood-opacity="0" result="BackgroundImageFix"/>
<feGaussianBlur in="BackgroundImageFix" stdDeviation="0.596129"/>
<feComposite in2="SourceAlpha" operator="in" result="effect1_backgroundBlur_801_416"/>
<feColorMatrix in="SourceAlpha" type="matrix" values="0 0 0 0 0 0 0 0 0 0 0 0 0 0 0 0 0 0 127 0" result="hardAlpha"/>
<feOffset dx="2" dy="2"/>
<feGaussianBlur stdDeviation="6"/>
<feComposite in2="hardAlpha" operator="out"/>
<feColorMatrix type="matrix" values="0 0 0 0 0.469583 0 0 0 0 0.569926 0 0 0 0 0.7 0 0 0 0.8 0"/>
<feBlend mode="normal" in2="effect1_backgroundBlur_801_416" result="effect2_dropShadow_801_416"/>
<feBlend mode="normal" in="SourceGraphic" in2="effect2_dropShadow_801_416" result="shape"/>
</filter>
<filter id="filter1_bd_801_416" x="26.3638" y="10.7141" width="40.3628" height="49.4621" filterUnits="userSpaceOnUse" color-interpolation-filters="sRGB">
<feFlood flood-opacity="0" result="BackgroundImageFix"/>
<feGaussianBlur in="BackgroundImageFix" stdDeviation="0.596129"/>
<feComposite in2="SourceAlpha" operator="in" result="effect1_backgroundBlur_801_416"/>
<feColorMatrix in="SourceAlpha" type="matrix" values="0 0 0 0 0 0 0 0 0 0 0 0 0 0 0 0 0 0 127 0" result="hardAlpha"/>
<feOffset dx="2" dy="2"/>
<feGaussianBlur stdDeviation="6"/>
<feComposite in2="hardAlpha" operator="out"/>
<feColorMatrix type="matrix" values="0 0 0 0 0.469583 0 0 0 0 0.569926 0 0 0 0 0.7 0 0 0 0.8 0"/>
<feBlend mode="normal" in2="effect1_backgroundBlur_801_416" result="effect2_dropShadow_801_416"/>
<feBlend mode="normal" in="SourceGraphic" in2="effect2_dropShadow_801_416" result="shape"/>
</filter>
<filter id="filter2_bd_801_416" x="9.99994" y="0.191055" width="46" height="35.607" filterUnits="userSpaceOnUse" color-interpolation-filters="sRGB">
<feFlood flood-opacity="0" result="BackgroundImageFix"/>
<feGaussianBlur in="BackgroundImageFix" stdDeviation="0.596129"/>
<feComposite in2="SourceAlpha" operator="in" result="effect1_backgroundBlur_801_416"/>
<feColorMatrix in="SourceAlpha" type="matrix" values="0 0 0 0 0 0 0 0 0 0 0 0 0 0 0 0 0 0 127 0" result="hardAlpha"/>
<feOffset dx="2" dy="2"/>
<feGaussianBlur stdDeviation="6"/>
<feComposite in2="hardAlpha" operator="out"/>
<feColorMatrix type="matrix" values="0 0 0 0 0.469583 0 0 0 0 0.569926 0 0 0 0 0.7 0 0 0 0.8 0"/>
<feBlend mode="normal" in2="effect1_backgroundBlur_801_416" result="effect2_dropShadow_801_416"/>
<feBlend mode="normal" in="SourceGraphic" in2="effect2_dropShadow_801_416" result="shape"/>
</filter>
<linearGradient id="paint0_linear_801_416" x1="-5.28414" y1="49.2996" x2="25.437" y2="56.682" gradientUnits="userSpaceOnUse">
<stop stop-color="white"/>
<stop offset="1" stop-color="#A7C2E5"/>
</linearGradient>
<linearGradient id="paint1_linear_801_416" x1="3.2553" y1="6.84651" x2="48.1232" y2="30.4948" gradientUnits="userSpaceOnUse">
<stop stop-color="white"/>
<stop offset="1" stop-color="white" stop-opacity="0"/>
</linearGradient>
<linearGradient id="paint2_linear_801_416" x1="68.0107" y1="49.2996" x2="37.2896" y2="56.682" gradientUnits="userSpaceOnUse">
<stop stop-color="white"/>
<stop offset="1" stop-color="#A7C2E5"/>
</linearGradient>
<linearGradient id="paint3_linear_801_416" x1="59.4713" y1="6.84651" x2="14.6034" y2="30.4948" gradientUnits="userSpaceOnUse">
<stop stop-color="white"/>
<stop offset="1" stop-color="white" stop-opacity="0"/>
</linearGradient>
</defs>
</svg>
