<svg width="72" height="73" viewBox="0 0 72 73" fill="none" xmlns="http://www.w3.org/2000/svg">
<g filter="url(#filter0_bd_801_810)">
<path d="M54.9514 29.0536L54.97 29.073C56.3907 30.5538 58 32.2316 58 34.4688C58 36.7059 56.3907 38.3859 54.97 39.8645L54.963 39.8718C54.1573 40.7138 53.3255 41.5831 53.0114 42.3438C52.7206 43.0431 52.7029 44.2013 52.6858 45.3242L52.6857 45.3309L52.6856 45.3391C52.6535 47.4286 52.6171 49.7945 50.9714 51.4402C49.3257 53.0859 46.9598 53.1222 44.8704 53.1543L44.8621 53.1545L44.8555 53.1546C43.7326 53.1717 42.5743 53.1893 41.875 53.4802C41.1159 53.7928 40.2534 54.6181 39.4152 55.4201L39.3957 55.4388C37.915 56.8595 36.2371 58.4688 34 58.4688C31.7629 58.4688 30.0829 56.8595 28.6043 55.4388L28.597 55.4318C27.755 54.6261 26.8857 53.7943 26.125 53.4802C25.4257 53.1893 24.2674 53.1717 23.1445 53.1546L23.1379 53.1545L23.1296 53.1543C21.0402 53.1222 18.6743 53.0859 17.0286 51.4402C15.3829 49.7945 15.3465 47.4286 15.3144 45.3391L15.3143 45.3309L15.3142 45.3243C15.2971 44.2013 15.2794 43.0431 14.9886 42.3438C14.676 41.5846 13.8507 40.7221 13.0486 39.8839L13.03 39.8645C11.6093 38.3837 10 36.7059 10 34.4688C10 32.2316 11.6093 30.5516 13.03 29.073L13.037 29.0657C13.8427 28.2237 14.6745 27.3544 14.9886 26.5938C15.2794 25.8944 15.2971 24.7362 15.3142 23.6132L15.3143 23.6066C15.3571 21.5152 15.3807 19.1452 17.0286 17.4973C18.6743 15.8516 21.0402 15.8153 23.1296 15.7832L23.1379 15.783L23.1453 15.7829C24.268 15.7658 25.4301 15.7481 26.125 15.4573C26.8841 15.1447 27.7467 14.3194 28.5848 13.5174L28.6043 13.4987C30.085 12.078 31.7629 10.4688 34 10.4688C36.2371 10.4688 37.9171 12.078 39.3957 13.4987L39.403 13.5057C40.245 14.3114 41.1143 15.1432 41.875 15.4573C42.5743 15.7482 43.7326 15.7658 44.8555 15.7829L44.8621 15.783L44.8704 15.7832C46.9598 15.8153 49.3257 15.8516 50.9714 17.4973C52.6171 19.143 52.6535 21.509 52.6856 23.5984L52.6857 23.6066L52.6858 23.6133C52.7029 24.7362 52.7206 25.8944 53.0114 26.5938C53.324 27.3529 54.1493 28.2154 54.9514 29.0536Z" fill="url(#paint0_linear_801_810)" fill-opacity="0.5" shape-rendering="crispEdges"/>
<path d="M54.7896 29.2461L54.7894 29.2459L54.7708 29.2264L54.7673 29.2228C54.3687 28.8062 53.9569 28.3759 53.6057 27.9539C53.2552 27.5328 52.9512 27.1041 52.7803 26.6889C52.6196 26.3023 52.5402 25.8064 52.4968 25.283C52.4532 24.7572 52.4444 24.1799 52.4359 23.6219L52.4358 23.6171V23.6171L52.4357 23.6104L52.4356 23.6022C52.4032 21.4905 52.3568 19.2363 50.7947 17.6741C49.2325 16.1119 46.9783 16.0656 44.8665 16.0331L44.8583 16.033L44.8517 16.0329L44.8467 16.0328C44.2888 16.0243 43.7115 16.0155 43.1857 15.9719C42.6621 15.9285 42.166 15.849 41.7793 15.6883C41.3635 15.5165 40.9328 15.2106 40.5095 14.858C40.0852 14.5045 39.6523 14.0903 39.2338 13.6898L39.2302 13.6864L39.2229 13.6794L39.2225 13.679C37.7271 12.2421 36.1194 10.7188 34 10.7188C31.8806 10.7188 30.2752 12.242 28.7774 13.6791L28.7771 13.6794L28.7577 13.698L28.754 13.7015C28.3375 14.1001 27.9072 14.5118 27.4852 14.863C27.0643 15.2134 26.6357 15.5173 26.2207 15.6883C25.8359 15.8491 25.3399 15.9285 24.8162 15.9719C24.2901 16.0155 23.7119 16.0243 23.154 16.0328L23.1491 16.0329L23.1417 16.033L23.1417 16.033L23.1335 16.0331H23.1335C21.0217 16.0656 18.7675 16.1119 17.2053 17.6741C15.6539 19.2255 15.6083 21.4584 15.5653 23.5598L15.5643 23.6104L15.5642 23.6117L15.5642 23.6171L15.5641 23.6221C15.5556 24.18 15.5468 24.7572 15.5032 25.283C15.4597 25.8066 15.3803 26.3027 15.2196 26.6894C15.2195 26.6895 15.2195 26.6896 15.2194 26.6898L14.9886 26.5938L54.7896 29.2461ZM54.7896 29.2461C56.2267 30.7439 57.75 32.3494 57.75 34.4688C57.75 36.5881 56.2266 38.1958 54.7897 39.6912L54.7894 39.6916L54.7824 39.6989L54.963 39.8718M54.7896 29.2461L54.963 39.8718M54.963 39.8718L54.7824 39.6989L54.779 39.7025C54.3785 40.121 53.9642 40.554 53.6108 40.9783C53.2582 41.4015 52.9522 41.8322 52.7805 42.248M54.963 39.8718L52.7805 42.248M52.7805 42.248C52.6197 42.6348 52.5403 43.1308 52.4968 43.6545C52.4532 44.1803 52.4444 44.7576 52.4359 45.3156L52.4358 45.3204V45.3204L52.4357 45.327L52.4356 45.3353C52.4032 47.447 52.3568 49.7012 50.7947 51.2634C49.2325 52.8256 46.9783 52.8719 44.8665 52.9044L44.8583 52.9045L44.8517 52.9046H44.8516L44.8468 52.9047C44.2888 52.9132 43.7115 52.922 43.1857 52.9656C42.6623 53.009 42.1664 53.0884 41.7798 53.249C41.3647 53.4199 40.9359 53.7239 40.5148 54.0745C40.0929 54.4257 39.6625 54.8374 39.246 55.236L39.2423 55.2395L39.2229 55.2581L39.2226 55.2584C37.7248 56.6955 36.1194 58.2188 34 58.2188C31.8806 58.2188 30.2729 56.6954 28.7775 55.2585L28.7771 55.2581L28.7698 55.2511L28.597 55.4318L28.7698 55.2511L28.7662 55.2477C28.3478 54.8473 27.9148 54.433 27.4905 54.0795C27.0672 53.7269 26.6365 53.421 26.2207 53.2492C25.834 53.0885 25.3379 53.009 24.8143 52.9656C24.2885 52.922 23.7112 52.9132 23.1532 52.9047L23.1484 52.9046H23.1483L23.1417 52.9045L23.1334 52.9044C21.0217 52.8719 18.7675 52.8256 17.2053 51.2634C15.6432 49.7012 15.5968 47.447 15.5644 45.3353L15.5643 45.3271L15.5643 45.327L15.5642 45.3204L15.5641 45.3155C15.5556 44.7575 15.5468 44.1803 15.5032 43.6545C15.4598 43.1311 15.3804 42.6352 15.2197 42.2486L52.7805 42.248Z" stroke="url(#paint1_linear_801_810)" stroke-width="0.5" shape-rendering="crispEdges"/>
</g>
<path fill-rule="evenodd" clip-rule="evenodd" d="M36.7917 22.4688L31.2086 22.4688V24.4146H30.3791C28.0665 24.4146 26.1918 26.2893 26.1918 28.6019L26.1917 33.1373L28.1857 31.7167L28.1857 28.6019C28.1857 27.3905 29.1677 26.4085 30.3791 26.4085H37.6183C38.8297 26.4085 39.8117 27.3905 39.8117 28.6019L39.8116 30.2398L41.8056 29.7752L41.8056 28.6019C41.8056 26.2893 39.9309 24.4146 37.6183 24.4146H36.7917V22.4688ZM28.1856 39.7504L26.1917 40.2153L26.1917 41.5267C26.1917 43.8393 28.0664 45.714 30.379 45.714H37.6182C39.9308 45.714 41.8055 43.8393 41.8055 41.5267L41.8056 36.8543L39.8116 38.2746L39.8116 41.5267C39.8116 42.7381 38.8296 43.7201 37.6182 43.7201H30.379C29.1676 43.7201 28.1856 42.7381 28.1856 41.5267L28.1856 39.7504Z" fill="white"/>
<g filter="url(#filter1_bd_801_810)">
<path d="M44.8624 31.5862C44.7486 31.4383 44.572 31.324 44.3613 31.2619C44.1506 31.1997 43.9184 31.1935 43.7024 31.2441L36.3346 32.9608L36.3346 29.9483C36.3347 29.8004 36.2776 29.6558 36.1703 29.5323C36.063 29.4087 35.9103 29.3117 35.731 29.2531C35.5517 29.1945 35.3537 29.1769 35.1613 29.2025C34.969 29.2281 34.7907 29.2958 34.6486 29.3972L23.3149 37.4719C23.1503 37.5891 23.043 37.745 23.0104 37.9143C22.9779 38.0836 23.022 38.2562 23.1357 38.404C23.2494 38.5519 23.4258 38.6662 23.6363 38.7284C23.8468 38.7906 24.079 38.797 24.2949 38.7465L31.6647 37.0284L31.6647 40.0409C31.6646 40.1887 31.7218 40.3333 31.829 40.4568C31.9363 40.5804 32.089 40.6774 32.2683 40.7361C32.4476 40.7947 32.6456 40.8122 32.838 40.7866C33.0303 40.761 33.2086 40.6933 33.3507 40.5919L44.6844 32.5187C44.8492 32.4016 44.9568 32.2456 44.9895 32.0763C45.0222 31.9069 44.9781 31.7342 44.8644 31.5862L44.8624 31.5862Z" fill="#F4DE49"/>
</g>
<defs>
<filter id="filter0_bd_801_810" x="0" y="0.46875" width="72" height="72" filterUnits="userSpaceOnUse" color-interpolation-filters="sRGB">
<feFlood flood-opacity="0" result="BackgroundImageFix"/>
<feGaussianBlur in="BackgroundImageFix" stdDeviation="0.596129"/>
<feComposite in2="SourceAlpha" operator="in" result="effect1_backgroundBlur_801_810"/>
<feColorMatrix in="SourceAlpha" type="matrix" values="0 0 0 0 0 0 0 0 0 0 0 0 0 0 0 0 0 0 127 0" result="hardAlpha"/>
<feOffset dx="2" dy="2"/>
<feGaussianBlur stdDeviation="6"/>
<feComposite in2="hardAlpha" operator="out"/>
<feColorMatrix type="matrix" values="0 0 0 0 0.469583 0 0 0 0 0.569926 0 0 0 0 0.7 0 0 0 0.8 0"/>
<feBlend mode="normal" in2="effect1_backgroundBlur_801_810" result="effect2_dropShadow_801_810"/>
<feBlend mode="normal" in="SourceGraphic" in2="effect2_dropShadow_801_810" result="shape"/>
</filter>
<filter id="filter1_bd_801_810" x="13" y="19.1911" width="46" height="35.607" filterUnits="userSpaceOnUse" color-interpolation-filters="sRGB">
<feFlood flood-opacity="0" result="BackgroundImageFix"/>
<feGaussianBlur in="BackgroundImageFix" stdDeviation="0.596129"/>
<feComposite in2="SourceAlpha" operator="in" result="effect1_backgroundBlur_801_810"/>
<feColorMatrix in="SourceAlpha" type="matrix" values="0 0 0 0 0 0 0 0 0 0 0 0 0 0 0 0 0 0 127 0" result="hardAlpha"/>
<feOffset dx="2" dy="2"/>
<feGaussianBlur stdDeviation="6"/>
<feComposite in2="hardAlpha" operator="out"/>
<feColorMatrix type="matrix" values="0 0 0 0 0.469583 0 0 0 0 0.569926 0 0 0 0 0.7 0 0 0 0.8 0"/>
<feBlend mode="normal" in2="effect1_backgroundBlur_801_810" result="effect2_dropShadow_801_810"/>
<feBlend mode="normal" in="SourceGraphic" in2="effect2_dropShadow_801_810" result="shape"/>
</filter>
<linearGradient id="paint0_linear_801_810" x1="-34.8358" y1="64.3568" x2="48.7943" y2="95.6293" gradientUnits="userSpaceOnUse">
<stop stop-color="white"/>
<stop offset="1" stop-color="#A7C2E5"/>
</linearGradient>
<linearGradient id="paint1_linear_801_810" x1="-9.78547" y1="-15.6738" x2="90.7621" y2="66.7915" gradientUnits="userSpaceOnUse">
<stop stop-color="white"/>
<stop offset="1" stop-color="white" stop-opacity="0"/>
</linearGradient>
</defs>
</svg>
